G75*
%MOIN*%
%OFA0B0*%
%FSLAX25Y25*%
%IPPOS*%
%LPD*%
%AMOC8*
5,1,8,0,0,1.08239X$1,22.5*
%
%ADD10C,0.00000*%
%ADD11R,0.05906X0.01969*%
%ADD12R,0.01969X0.05906*%
%ADD13R,0.03900X0.01200*%
%ADD14C,0.06600*%
%ADD15R,0.07400X0.07400*%
%ADD16OC8,0.07400*%
%ADD17R,0.03937X0.04331*%
%ADD18R,0.04331X0.03937*%
%ADD19C,0.07087*%
%ADD20OC8,0.05200*%
%ADD21OC8,0.07087*%
%ADD22R,0.07098X0.06299*%
%ADD23C,0.05937*%
%ADD24R,0.10630X0.10039*%
%ADD25R,0.05000X0.02500*%
%ADD26C,0.01600*%
%ADD27C,0.00800*%
%ADD28R,0.02500X0.05000*%
%ADD29C,0.05906*%
%ADD30C,0.02362*%
%ADD31C,0.03562*%
%ADD32C,0.01575*%
%ADD33C,0.02400*%
%ADD34C,0.03999*%
%ADD35C,0.03937*%
%ADD36C,0.00600*%
%ADD37C,0.07874*%
%ADD38C,0.00984*%
D10*
X0001250Y0001250D02*
X0001250Y0174478D01*
X0481565Y0174478D01*
X0481565Y0001250D01*
X0001250Y0001250D01*
X0008140Y0015030D02*
X0008142Y0015199D01*
X0008148Y0015368D01*
X0008159Y0015537D01*
X0008173Y0015705D01*
X0008192Y0015873D01*
X0008215Y0016041D01*
X0008241Y0016208D01*
X0008272Y0016374D01*
X0008307Y0016540D01*
X0008346Y0016704D01*
X0008390Y0016868D01*
X0008437Y0017030D01*
X0008488Y0017191D01*
X0008543Y0017351D01*
X0008602Y0017510D01*
X0008664Y0017667D01*
X0008731Y0017822D01*
X0008802Y0017976D01*
X0008876Y0018128D01*
X0008954Y0018278D01*
X0009035Y0018426D01*
X0009120Y0018572D01*
X0009209Y0018716D01*
X0009301Y0018858D01*
X0009397Y0018997D01*
X0009496Y0019134D01*
X0009598Y0019269D01*
X0009704Y0019401D01*
X0009813Y0019530D01*
X0009925Y0019657D01*
X0010040Y0019781D01*
X0010158Y0019902D01*
X0010279Y0020020D01*
X0010403Y0020135D01*
X0010530Y0020247D01*
X0010659Y0020356D01*
X0010791Y0020462D01*
X0010926Y0020564D01*
X0011063Y0020663D01*
X0011202Y0020759D01*
X0011344Y0020851D01*
X0011488Y0020940D01*
X0011634Y0021025D01*
X0011782Y0021106D01*
X0011932Y0021184D01*
X0012084Y0021258D01*
X0012238Y0021329D01*
X0012393Y0021396D01*
X0012550Y0021458D01*
X0012709Y0021517D01*
X0012869Y0021572D01*
X0013030Y0021623D01*
X0013192Y0021670D01*
X0013356Y0021714D01*
X0013520Y0021753D01*
X0013686Y0021788D01*
X0013852Y0021819D01*
X0014019Y0021845D01*
X0014187Y0021868D01*
X0014355Y0021887D01*
X0014523Y0021901D01*
X0014692Y0021912D01*
X0014861Y0021918D01*
X0015030Y0021920D01*
X0015199Y0021918D01*
X0015368Y0021912D01*
X0015537Y0021901D01*
X0015705Y0021887D01*
X0015873Y0021868D01*
X0016041Y0021845D01*
X0016208Y0021819D01*
X0016374Y0021788D01*
X0016540Y0021753D01*
X0016704Y0021714D01*
X0016868Y0021670D01*
X0017030Y0021623D01*
X0017191Y0021572D01*
X0017351Y0021517D01*
X0017510Y0021458D01*
X0017667Y0021396D01*
X0017822Y0021329D01*
X0017976Y0021258D01*
X0018128Y0021184D01*
X0018278Y0021106D01*
X0018426Y0021025D01*
X0018572Y0020940D01*
X0018716Y0020851D01*
X0018858Y0020759D01*
X0018997Y0020663D01*
X0019134Y0020564D01*
X0019269Y0020462D01*
X0019401Y0020356D01*
X0019530Y0020247D01*
X0019657Y0020135D01*
X0019781Y0020020D01*
X0019902Y0019902D01*
X0020020Y0019781D01*
X0020135Y0019657D01*
X0020247Y0019530D01*
X0020356Y0019401D01*
X0020462Y0019269D01*
X0020564Y0019134D01*
X0020663Y0018997D01*
X0020759Y0018858D01*
X0020851Y0018716D01*
X0020940Y0018572D01*
X0021025Y0018426D01*
X0021106Y0018278D01*
X0021184Y0018128D01*
X0021258Y0017976D01*
X0021329Y0017822D01*
X0021396Y0017667D01*
X0021458Y0017510D01*
X0021517Y0017351D01*
X0021572Y0017191D01*
X0021623Y0017030D01*
X0021670Y0016868D01*
X0021714Y0016704D01*
X0021753Y0016540D01*
X0021788Y0016374D01*
X0021819Y0016208D01*
X0021845Y0016041D01*
X0021868Y0015873D01*
X0021887Y0015705D01*
X0021901Y0015537D01*
X0021912Y0015368D01*
X0021918Y0015199D01*
X0021920Y0015030D01*
X0021918Y0014861D01*
X0021912Y0014692D01*
X0021901Y0014523D01*
X0021887Y0014355D01*
X0021868Y0014187D01*
X0021845Y0014019D01*
X0021819Y0013852D01*
X0021788Y0013686D01*
X0021753Y0013520D01*
X0021714Y0013356D01*
X0021670Y0013192D01*
X0021623Y0013030D01*
X0021572Y0012869D01*
X0021517Y0012709D01*
X0021458Y0012550D01*
X0021396Y0012393D01*
X0021329Y0012238D01*
X0021258Y0012084D01*
X0021184Y0011932D01*
X0021106Y0011782D01*
X0021025Y0011634D01*
X0020940Y0011488D01*
X0020851Y0011344D01*
X0020759Y0011202D01*
X0020663Y0011063D01*
X0020564Y0010926D01*
X0020462Y0010791D01*
X0020356Y0010659D01*
X0020247Y0010530D01*
X0020135Y0010403D01*
X0020020Y0010279D01*
X0019902Y0010158D01*
X0019781Y0010040D01*
X0019657Y0009925D01*
X0019530Y0009813D01*
X0019401Y0009704D01*
X0019269Y0009598D01*
X0019134Y0009496D01*
X0018997Y0009397D01*
X0018858Y0009301D01*
X0018716Y0009209D01*
X0018572Y0009120D01*
X0018426Y0009035D01*
X0018278Y0008954D01*
X0018128Y0008876D01*
X0017976Y0008802D01*
X0017822Y0008731D01*
X0017667Y0008664D01*
X0017510Y0008602D01*
X0017351Y0008543D01*
X0017191Y0008488D01*
X0017030Y0008437D01*
X0016868Y0008390D01*
X0016704Y0008346D01*
X0016540Y0008307D01*
X0016374Y0008272D01*
X0016208Y0008241D01*
X0016041Y0008215D01*
X0015873Y0008192D01*
X0015705Y0008173D01*
X0015537Y0008159D01*
X0015368Y0008148D01*
X0015199Y0008142D01*
X0015030Y0008140D01*
X0014861Y0008142D01*
X0014692Y0008148D01*
X0014523Y0008159D01*
X0014355Y0008173D01*
X0014187Y0008192D01*
X0014019Y0008215D01*
X0013852Y0008241D01*
X0013686Y0008272D01*
X0013520Y0008307D01*
X0013356Y0008346D01*
X0013192Y0008390D01*
X0013030Y0008437D01*
X0012869Y0008488D01*
X0012709Y0008543D01*
X0012550Y0008602D01*
X0012393Y0008664D01*
X0012238Y0008731D01*
X0012084Y0008802D01*
X0011932Y0008876D01*
X0011782Y0008954D01*
X0011634Y0009035D01*
X0011488Y0009120D01*
X0011344Y0009209D01*
X0011202Y0009301D01*
X0011063Y0009397D01*
X0010926Y0009496D01*
X0010791Y0009598D01*
X0010659Y0009704D01*
X0010530Y0009813D01*
X0010403Y0009925D01*
X0010279Y0010040D01*
X0010158Y0010158D01*
X0010040Y0010279D01*
X0009925Y0010403D01*
X0009813Y0010530D01*
X0009704Y0010659D01*
X0009598Y0010791D01*
X0009496Y0010926D01*
X0009397Y0011063D01*
X0009301Y0011202D01*
X0009209Y0011344D01*
X0009120Y0011488D01*
X0009035Y0011634D01*
X0008954Y0011782D01*
X0008876Y0011932D01*
X0008802Y0012084D01*
X0008731Y0012238D01*
X0008664Y0012393D01*
X0008602Y0012550D01*
X0008543Y0012709D01*
X0008488Y0012869D01*
X0008437Y0013030D01*
X0008390Y0013192D01*
X0008346Y0013356D01*
X0008307Y0013520D01*
X0008272Y0013686D01*
X0008241Y0013852D01*
X0008215Y0014019D01*
X0008192Y0014187D01*
X0008173Y0014355D01*
X0008159Y0014523D01*
X0008148Y0014692D01*
X0008142Y0014861D01*
X0008140Y0015030D01*
X0305081Y0060305D02*
X0305083Y0060466D01*
X0305089Y0060626D01*
X0305099Y0060787D01*
X0305113Y0060947D01*
X0305131Y0061107D01*
X0305152Y0061266D01*
X0305178Y0061425D01*
X0305208Y0061583D01*
X0305241Y0061740D01*
X0305279Y0061897D01*
X0305320Y0062052D01*
X0305365Y0062206D01*
X0305414Y0062359D01*
X0305467Y0062511D01*
X0305523Y0062662D01*
X0305584Y0062811D01*
X0305647Y0062959D01*
X0305715Y0063105D01*
X0305786Y0063249D01*
X0305860Y0063391D01*
X0305938Y0063532D01*
X0306020Y0063670D01*
X0306105Y0063807D01*
X0306193Y0063941D01*
X0306285Y0064073D01*
X0306380Y0064203D01*
X0306478Y0064331D01*
X0306579Y0064456D01*
X0306683Y0064578D01*
X0306790Y0064698D01*
X0306900Y0064815D01*
X0307013Y0064930D01*
X0307129Y0065041D01*
X0307248Y0065150D01*
X0307369Y0065255D01*
X0307493Y0065358D01*
X0307619Y0065458D01*
X0307747Y0065554D01*
X0307878Y0065647D01*
X0308012Y0065737D01*
X0308147Y0065824D01*
X0308285Y0065907D01*
X0308424Y0065987D01*
X0308566Y0066063D01*
X0308709Y0066136D01*
X0308854Y0066205D01*
X0309001Y0066271D01*
X0309149Y0066333D01*
X0309299Y0066391D01*
X0309450Y0066446D01*
X0309603Y0066497D01*
X0309757Y0066544D01*
X0309912Y0066587D01*
X0310068Y0066626D01*
X0310224Y0066662D01*
X0310382Y0066693D01*
X0310540Y0066721D01*
X0310699Y0066745D01*
X0310859Y0066765D01*
X0311019Y0066781D01*
X0311179Y0066793D01*
X0311340Y0066801D01*
X0311501Y0066805D01*
X0311661Y0066805D01*
X0311822Y0066801D01*
X0311983Y0066793D01*
X0312143Y0066781D01*
X0312303Y0066765D01*
X0312463Y0066745D01*
X0312622Y0066721D01*
X0312780Y0066693D01*
X0312938Y0066662D01*
X0313094Y0066626D01*
X0313250Y0066587D01*
X0313405Y0066544D01*
X0313559Y0066497D01*
X0313712Y0066446D01*
X0313863Y0066391D01*
X0314013Y0066333D01*
X0314161Y0066271D01*
X0314308Y0066205D01*
X0314453Y0066136D01*
X0314596Y0066063D01*
X0314738Y0065987D01*
X0314877Y0065907D01*
X0315015Y0065824D01*
X0315150Y0065737D01*
X0315284Y0065647D01*
X0315415Y0065554D01*
X0315543Y0065458D01*
X0315669Y0065358D01*
X0315793Y0065255D01*
X0315914Y0065150D01*
X0316033Y0065041D01*
X0316149Y0064930D01*
X0316262Y0064815D01*
X0316372Y0064698D01*
X0316479Y0064578D01*
X0316583Y0064456D01*
X0316684Y0064331D01*
X0316782Y0064203D01*
X0316877Y0064073D01*
X0316969Y0063941D01*
X0317057Y0063807D01*
X0317142Y0063670D01*
X0317224Y0063532D01*
X0317302Y0063391D01*
X0317376Y0063249D01*
X0317447Y0063105D01*
X0317515Y0062959D01*
X0317578Y0062811D01*
X0317639Y0062662D01*
X0317695Y0062511D01*
X0317748Y0062359D01*
X0317797Y0062206D01*
X0317842Y0062052D01*
X0317883Y0061897D01*
X0317921Y0061740D01*
X0317954Y0061583D01*
X0317984Y0061425D01*
X0318010Y0061266D01*
X0318031Y0061107D01*
X0318049Y0060947D01*
X0318063Y0060787D01*
X0318073Y0060626D01*
X0318079Y0060466D01*
X0318081Y0060305D01*
X0318079Y0060144D01*
X0318073Y0059984D01*
X0318063Y0059823D01*
X0318049Y0059663D01*
X0318031Y0059503D01*
X0318010Y0059344D01*
X0317984Y0059185D01*
X0317954Y0059027D01*
X0317921Y0058870D01*
X0317883Y0058713D01*
X0317842Y0058558D01*
X0317797Y0058404D01*
X0317748Y0058251D01*
X0317695Y0058099D01*
X0317639Y0057948D01*
X0317578Y0057799D01*
X0317515Y0057651D01*
X0317447Y0057505D01*
X0317376Y0057361D01*
X0317302Y0057219D01*
X0317224Y0057078D01*
X0317142Y0056940D01*
X0317057Y0056803D01*
X0316969Y0056669D01*
X0316877Y0056537D01*
X0316782Y0056407D01*
X0316684Y0056279D01*
X0316583Y0056154D01*
X0316479Y0056032D01*
X0316372Y0055912D01*
X0316262Y0055795D01*
X0316149Y0055680D01*
X0316033Y0055569D01*
X0315914Y0055460D01*
X0315793Y0055355D01*
X0315669Y0055252D01*
X0315543Y0055152D01*
X0315415Y0055056D01*
X0315284Y0054963D01*
X0315150Y0054873D01*
X0315015Y0054786D01*
X0314877Y0054703D01*
X0314738Y0054623D01*
X0314596Y0054547D01*
X0314453Y0054474D01*
X0314308Y0054405D01*
X0314161Y0054339D01*
X0314013Y0054277D01*
X0313863Y0054219D01*
X0313712Y0054164D01*
X0313559Y0054113D01*
X0313405Y0054066D01*
X0313250Y0054023D01*
X0313094Y0053984D01*
X0312938Y0053948D01*
X0312780Y0053917D01*
X0312622Y0053889D01*
X0312463Y0053865D01*
X0312303Y0053845D01*
X0312143Y0053829D01*
X0311983Y0053817D01*
X0311822Y0053809D01*
X0311661Y0053805D01*
X0311501Y0053805D01*
X0311340Y0053809D01*
X0311179Y0053817D01*
X0311019Y0053829D01*
X0310859Y0053845D01*
X0310699Y0053865D01*
X0310540Y0053889D01*
X0310382Y0053917D01*
X0310224Y0053948D01*
X0310068Y0053984D01*
X0309912Y0054023D01*
X0309757Y0054066D01*
X0309603Y0054113D01*
X0309450Y0054164D01*
X0309299Y0054219D01*
X0309149Y0054277D01*
X0309001Y0054339D01*
X0308854Y0054405D01*
X0308709Y0054474D01*
X0308566Y0054547D01*
X0308424Y0054623D01*
X0308285Y0054703D01*
X0308147Y0054786D01*
X0308012Y0054873D01*
X0307878Y0054963D01*
X0307747Y0055056D01*
X0307619Y0055152D01*
X0307493Y0055252D01*
X0307369Y0055355D01*
X0307248Y0055460D01*
X0307129Y0055569D01*
X0307013Y0055680D01*
X0306900Y0055795D01*
X0306790Y0055912D01*
X0306683Y0056032D01*
X0306579Y0056154D01*
X0306478Y0056279D01*
X0306380Y0056407D01*
X0306285Y0056537D01*
X0306193Y0056669D01*
X0306105Y0056803D01*
X0306020Y0056940D01*
X0305938Y0057078D01*
X0305860Y0057219D01*
X0305786Y0057361D01*
X0305715Y0057505D01*
X0305647Y0057651D01*
X0305584Y0057799D01*
X0305523Y0057948D01*
X0305467Y0058099D01*
X0305414Y0058251D01*
X0305365Y0058404D01*
X0305320Y0058558D01*
X0305279Y0058713D01*
X0305241Y0058870D01*
X0305208Y0059027D01*
X0305178Y0059185D01*
X0305152Y0059344D01*
X0305131Y0059503D01*
X0305113Y0059663D01*
X0305099Y0059823D01*
X0305089Y0059984D01*
X0305083Y0060144D01*
X0305081Y0060305D01*
X0305081Y0103612D02*
X0305083Y0103773D01*
X0305089Y0103933D01*
X0305099Y0104094D01*
X0305113Y0104254D01*
X0305131Y0104414D01*
X0305152Y0104573D01*
X0305178Y0104732D01*
X0305208Y0104890D01*
X0305241Y0105047D01*
X0305279Y0105204D01*
X0305320Y0105359D01*
X0305365Y0105513D01*
X0305414Y0105666D01*
X0305467Y0105818D01*
X0305523Y0105969D01*
X0305584Y0106118D01*
X0305647Y0106266D01*
X0305715Y0106412D01*
X0305786Y0106556D01*
X0305860Y0106698D01*
X0305938Y0106839D01*
X0306020Y0106977D01*
X0306105Y0107114D01*
X0306193Y0107248D01*
X0306285Y0107380D01*
X0306380Y0107510D01*
X0306478Y0107638D01*
X0306579Y0107763D01*
X0306683Y0107885D01*
X0306790Y0108005D01*
X0306900Y0108122D01*
X0307013Y0108237D01*
X0307129Y0108348D01*
X0307248Y0108457D01*
X0307369Y0108562D01*
X0307493Y0108665D01*
X0307619Y0108765D01*
X0307747Y0108861D01*
X0307878Y0108954D01*
X0308012Y0109044D01*
X0308147Y0109131D01*
X0308285Y0109214D01*
X0308424Y0109294D01*
X0308566Y0109370D01*
X0308709Y0109443D01*
X0308854Y0109512D01*
X0309001Y0109578D01*
X0309149Y0109640D01*
X0309299Y0109698D01*
X0309450Y0109753D01*
X0309603Y0109804D01*
X0309757Y0109851D01*
X0309912Y0109894D01*
X0310068Y0109933D01*
X0310224Y0109969D01*
X0310382Y0110000D01*
X0310540Y0110028D01*
X0310699Y0110052D01*
X0310859Y0110072D01*
X0311019Y0110088D01*
X0311179Y0110100D01*
X0311340Y0110108D01*
X0311501Y0110112D01*
X0311661Y0110112D01*
X0311822Y0110108D01*
X0311983Y0110100D01*
X0312143Y0110088D01*
X0312303Y0110072D01*
X0312463Y0110052D01*
X0312622Y0110028D01*
X0312780Y0110000D01*
X0312938Y0109969D01*
X0313094Y0109933D01*
X0313250Y0109894D01*
X0313405Y0109851D01*
X0313559Y0109804D01*
X0313712Y0109753D01*
X0313863Y0109698D01*
X0314013Y0109640D01*
X0314161Y0109578D01*
X0314308Y0109512D01*
X0314453Y0109443D01*
X0314596Y0109370D01*
X0314738Y0109294D01*
X0314877Y0109214D01*
X0315015Y0109131D01*
X0315150Y0109044D01*
X0315284Y0108954D01*
X0315415Y0108861D01*
X0315543Y0108765D01*
X0315669Y0108665D01*
X0315793Y0108562D01*
X0315914Y0108457D01*
X0316033Y0108348D01*
X0316149Y0108237D01*
X0316262Y0108122D01*
X0316372Y0108005D01*
X0316479Y0107885D01*
X0316583Y0107763D01*
X0316684Y0107638D01*
X0316782Y0107510D01*
X0316877Y0107380D01*
X0316969Y0107248D01*
X0317057Y0107114D01*
X0317142Y0106977D01*
X0317224Y0106839D01*
X0317302Y0106698D01*
X0317376Y0106556D01*
X0317447Y0106412D01*
X0317515Y0106266D01*
X0317578Y0106118D01*
X0317639Y0105969D01*
X0317695Y0105818D01*
X0317748Y0105666D01*
X0317797Y0105513D01*
X0317842Y0105359D01*
X0317883Y0105204D01*
X0317921Y0105047D01*
X0317954Y0104890D01*
X0317984Y0104732D01*
X0318010Y0104573D01*
X0318031Y0104414D01*
X0318049Y0104254D01*
X0318063Y0104094D01*
X0318073Y0103933D01*
X0318079Y0103773D01*
X0318081Y0103612D01*
X0318079Y0103451D01*
X0318073Y0103291D01*
X0318063Y0103130D01*
X0318049Y0102970D01*
X0318031Y0102810D01*
X0318010Y0102651D01*
X0317984Y0102492D01*
X0317954Y0102334D01*
X0317921Y0102177D01*
X0317883Y0102020D01*
X0317842Y0101865D01*
X0317797Y0101711D01*
X0317748Y0101558D01*
X0317695Y0101406D01*
X0317639Y0101255D01*
X0317578Y0101106D01*
X0317515Y0100958D01*
X0317447Y0100812D01*
X0317376Y0100668D01*
X0317302Y0100526D01*
X0317224Y0100385D01*
X0317142Y0100247D01*
X0317057Y0100110D01*
X0316969Y0099976D01*
X0316877Y0099844D01*
X0316782Y0099714D01*
X0316684Y0099586D01*
X0316583Y0099461D01*
X0316479Y0099339D01*
X0316372Y0099219D01*
X0316262Y0099102D01*
X0316149Y0098987D01*
X0316033Y0098876D01*
X0315914Y0098767D01*
X0315793Y0098662D01*
X0315669Y0098559D01*
X0315543Y0098459D01*
X0315415Y0098363D01*
X0315284Y0098270D01*
X0315150Y0098180D01*
X0315015Y0098093D01*
X0314877Y0098010D01*
X0314738Y0097930D01*
X0314596Y0097854D01*
X0314453Y0097781D01*
X0314308Y0097712D01*
X0314161Y0097646D01*
X0314013Y0097584D01*
X0313863Y0097526D01*
X0313712Y0097471D01*
X0313559Y0097420D01*
X0313405Y0097373D01*
X0313250Y0097330D01*
X0313094Y0097291D01*
X0312938Y0097255D01*
X0312780Y0097224D01*
X0312622Y0097196D01*
X0312463Y0097172D01*
X0312303Y0097152D01*
X0312143Y0097136D01*
X0311983Y0097124D01*
X0311822Y0097116D01*
X0311661Y0097112D01*
X0311501Y0097112D01*
X0311340Y0097116D01*
X0311179Y0097124D01*
X0311019Y0097136D01*
X0310859Y0097152D01*
X0310699Y0097172D01*
X0310540Y0097196D01*
X0310382Y0097224D01*
X0310224Y0097255D01*
X0310068Y0097291D01*
X0309912Y0097330D01*
X0309757Y0097373D01*
X0309603Y0097420D01*
X0309450Y0097471D01*
X0309299Y0097526D01*
X0309149Y0097584D01*
X0309001Y0097646D01*
X0308854Y0097712D01*
X0308709Y0097781D01*
X0308566Y0097854D01*
X0308424Y0097930D01*
X0308285Y0098010D01*
X0308147Y0098093D01*
X0308012Y0098180D01*
X0307878Y0098270D01*
X0307747Y0098363D01*
X0307619Y0098459D01*
X0307493Y0098559D01*
X0307369Y0098662D01*
X0307248Y0098767D01*
X0307129Y0098876D01*
X0307013Y0098987D01*
X0306900Y0099102D01*
X0306790Y0099219D01*
X0306683Y0099339D01*
X0306579Y0099461D01*
X0306478Y0099586D01*
X0306380Y0099714D01*
X0306285Y0099844D01*
X0306193Y0099976D01*
X0306105Y0100110D01*
X0306020Y0100247D01*
X0305938Y0100385D01*
X0305860Y0100526D01*
X0305786Y0100668D01*
X0305715Y0100812D01*
X0305647Y0100958D01*
X0305584Y0101106D01*
X0305523Y0101255D01*
X0305467Y0101406D01*
X0305414Y0101558D01*
X0305365Y0101711D01*
X0305320Y0101865D01*
X0305279Y0102020D01*
X0305241Y0102177D01*
X0305208Y0102334D01*
X0305178Y0102492D01*
X0305152Y0102651D01*
X0305131Y0102810D01*
X0305113Y0102970D01*
X0305099Y0103130D01*
X0305089Y0103291D01*
X0305083Y0103451D01*
X0305081Y0103612D01*
X0305081Y0146919D02*
X0305083Y0147080D01*
X0305089Y0147240D01*
X0305099Y0147401D01*
X0305113Y0147561D01*
X0305131Y0147721D01*
X0305152Y0147880D01*
X0305178Y0148039D01*
X0305208Y0148197D01*
X0305241Y0148354D01*
X0305279Y0148511D01*
X0305320Y0148666D01*
X0305365Y0148820D01*
X0305414Y0148973D01*
X0305467Y0149125D01*
X0305523Y0149276D01*
X0305584Y0149425D01*
X0305647Y0149573D01*
X0305715Y0149719D01*
X0305786Y0149863D01*
X0305860Y0150005D01*
X0305938Y0150146D01*
X0306020Y0150284D01*
X0306105Y0150421D01*
X0306193Y0150555D01*
X0306285Y0150687D01*
X0306380Y0150817D01*
X0306478Y0150945D01*
X0306579Y0151070D01*
X0306683Y0151192D01*
X0306790Y0151312D01*
X0306900Y0151429D01*
X0307013Y0151544D01*
X0307129Y0151655D01*
X0307248Y0151764D01*
X0307369Y0151869D01*
X0307493Y0151972D01*
X0307619Y0152072D01*
X0307747Y0152168D01*
X0307878Y0152261D01*
X0308012Y0152351D01*
X0308147Y0152438D01*
X0308285Y0152521D01*
X0308424Y0152601D01*
X0308566Y0152677D01*
X0308709Y0152750D01*
X0308854Y0152819D01*
X0309001Y0152885D01*
X0309149Y0152947D01*
X0309299Y0153005D01*
X0309450Y0153060D01*
X0309603Y0153111D01*
X0309757Y0153158D01*
X0309912Y0153201D01*
X0310068Y0153240D01*
X0310224Y0153276D01*
X0310382Y0153307D01*
X0310540Y0153335D01*
X0310699Y0153359D01*
X0310859Y0153379D01*
X0311019Y0153395D01*
X0311179Y0153407D01*
X0311340Y0153415D01*
X0311501Y0153419D01*
X0311661Y0153419D01*
X0311822Y0153415D01*
X0311983Y0153407D01*
X0312143Y0153395D01*
X0312303Y0153379D01*
X0312463Y0153359D01*
X0312622Y0153335D01*
X0312780Y0153307D01*
X0312938Y0153276D01*
X0313094Y0153240D01*
X0313250Y0153201D01*
X0313405Y0153158D01*
X0313559Y0153111D01*
X0313712Y0153060D01*
X0313863Y0153005D01*
X0314013Y0152947D01*
X0314161Y0152885D01*
X0314308Y0152819D01*
X0314453Y0152750D01*
X0314596Y0152677D01*
X0314738Y0152601D01*
X0314877Y0152521D01*
X0315015Y0152438D01*
X0315150Y0152351D01*
X0315284Y0152261D01*
X0315415Y0152168D01*
X0315543Y0152072D01*
X0315669Y0151972D01*
X0315793Y0151869D01*
X0315914Y0151764D01*
X0316033Y0151655D01*
X0316149Y0151544D01*
X0316262Y0151429D01*
X0316372Y0151312D01*
X0316479Y0151192D01*
X0316583Y0151070D01*
X0316684Y0150945D01*
X0316782Y0150817D01*
X0316877Y0150687D01*
X0316969Y0150555D01*
X0317057Y0150421D01*
X0317142Y0150284D01*
X0317224Y0150146D01*
X0317302Y0150005D01*
X0317376Y0149863D01*
X0317447Y0149719D01*
X0317515Y0149573D01*
X0317578Y0149425D01*
X0317639Y0149276D01*
X0317695Y0149125D01*
X0317748Y0148973D01*
X0317797Y0148820D01*
X0317842Y0148666D01*
X0317883Y0148511D01*
X0317921Y0148354D01*
X0317954Y0148197D01*
X0317984Y0148039D01*
X0318010Y0147880D01*
X0318031Y0147721D01*
X0318049Y0147561D01*
X0318063Y0147401D01*
X0318073Y0147240D01*
X0318079Y0147080D01*
X0318081Y0146919D01*
X0318079Y0146758D01*
X0318073Y0146598D01*
X0318063Y0146437D01*
X0318049Y0146277D01*
X0318031Y0146117D01*
X0318010Y0145958D01*
X0317984Y0145799D01*
X0317954Y0145641D01*
X0317921Y0145484D01*
X0317883Y0145327D01*
X0317842Y0145172D01*
X0317797Y0145018D01*
X0317748Y0144865D01*
X0317695Y0144713D01*
X0317639Y0144562D01*
X0317578Y0144413D01*
X0317515Y0144265D01*
X0317447Y0144119D01*
X0317376Y0143975D01*
X0317302Y0143833D01*
X0317224Y0143692D01*
X0317142Y0143554D01*
X0317057Y0143417D01*
X0316969Y0143283D01*
X0316877Y0143151D01*
X0316782Y0143021D01*
X0316684Y0142893D01*
X0316583Y0142768D01*
X0316479Y0142646D01*
X0316372Y0142526D01*
X0316262Y0142409D01*
X0316149Y0142294D01*
X0316033Y0142183D01*
X0315914Y0142074D01*
X0315793Y0141969D01*
X0315669Y0141866D01*
X0315543Y0141766D01*
X0315415Y0141670D01*
X0315284Y0141577D01*
X0315150Y0141487D01*
X0315015Y0141400D01*
X0314877Y0141317D01*
X0314738Y0141237D01*
X0314596Y0141161D01*
X0314453Y0141088D01*
X0314308Y0141019D01*
X0314161Y0140953D01*
X0314013Y0140891D01*
X0313863Y0140833D01*
X0313712Y0140778D01*
X0313559Y0140727D01*
X0313405Y0140680D01*
X0313250Y0140637D01*
X0313094Y0140598D01*
X0312938Y0140562D01*
X0312780Y0140531D01*
X0312622Y0140503D01*
X0312463Y0140479D01*
X0312303Y0140459D01*
X0312143Y0140443D01*
X0311983Y0140431D01*
X0311822Y0140423D01*
X0311661Y0140419D01*
X0311501Y0140419D01*
X0311340Y0140423D01*
X0311179Y0140431D01*
X0311019Y0140443D01*
X0310859Y0140459D01*
X0310699Y0140479D01*
X0310540Y0140503D01*
X0310382Y0140531D01*
X0310224Y0140562D01*
X0310068Y0140598D01*
X0309912Y0140637D01*
X0309757Y0140680D01*
X0309603Y0140727D01*
X0309450Y0140778D01*
X0309299Y0140833D01*
X0309149Y0140891D01*
X0309001Y0140953D01*
X0308854Y0141019D01*
X0308709Y0141088D01*
X0308566Y0141161D01*
X0308424Y0141237D01*
X0308285Y0141317D01*
X0308147Y0141400D01*
X0308012Y0141487D01*
X0307878Y0141577D01*
X0307747Y0141670D01*
X0307619Y0141766D01*
X0307493Y0141866D01*
X0307369Y0141969D01*
X0307248Y0142074D01*
X0307129Y0142183D01*
X0307013Y0142294D01*
X0306900Y0142409D01*
X0306790Y0142526D01*
X0306683Y0142646D01*
X0306579Y0142768D01*
X0306478Y0142893D01*
X0306380Y0143021D01*
X0306285Y0143151D01*
X0306193Y0143283D01*
X0306105Y0143417D01*
X0306020Y0143554D01*
X0305938Y0143692D01*
X0305860Y0143833D01*
X0305786Y0143975D01*
X0305715Y0144119D01*
X0305647Y0144265D01*
X0305584Y0144413D01*
X0305523Y0144562D01*
X0305467Y0144713D01*
X0305414Y0144865D01*
X0305365Y0145018D01*
X0305320Y0145172D01*
X0305279Y0145327D01*
X0305241Y0145484D01*
X0305208Y0145641D01*
X0305178Y0145799D01*
X0305152Y0145958D01*
X0305131Y0146117D01*
X0305113Y0146277D01*
X0305099Y0146437D01*
X0305089Y0146598D01*
X0305083Y0146758D01*
X0305081Y0146919D01*
X0460895Y0160699D02*
X0460897Y0160868D01*
X0460903Y0161037D01*
X0460914Y0161206D01*
X0460928Y0161374D01*
X0460947Y0161542D01*
X0460970Y0161710D01*
X0460996Y0161877D01*
X0461027Y0162043D01*
X0461062Y0162209D01*
X0461101Y0162373D01*
X0461145Y0162537D01*
X0461192Y0162699D01*
X0461243Y0162860D01*
X0461298Y0163020D01*
X0461357Y0163179D01*
X0461419Y0163336D01*
X0461486Y0163491D01*
X0461557Y0163645D01*
X0461631Y0163797D01*
X0461709Y0163947D01*
X0461790Y0164095D01*
X0461875Y0164241D01*
X0461964Y0164385D01*
X0462056Y0164527D01*
X0462152Y0164666D01*
X0462251Y0164803D01*
X0462353Y0164938D01*
X0462459Y0165070D01*
X0462568Y0165199D01*
X0462680Y0165326D01*
X0462795Y0165450D01*
X0462913Y0165571D01*
X0463034Y0165689D01*
X0463158Y0165804D01*
X0463285Y0165916D01*
X0463414Y0166025D01*
X0463546Y0166131D01*
X0463681Y0166233D01*
X0463818Y0166332D01*
X0463957Y0166428D01*
X0464099Y0166520D01*
X0464243Y0166609D01*
X0464389Y0166694D01*
X0464537Y0166775D01*
X0464687Y0166853D01*
X0464839Y0166927D01*
X0464993Y0166998D01*
X0465148Y0167065D01*
X0465305Y0167127D01*
X0465464Y0167186D01*
X0465624Y0167241D01*
X0465785Y0167292D01*
X0465947Y0167339D01*
X0466111Y0167383D01*
X0466275Y0167422D01*
X0466441Y0167457D01*
X0466607Y0167488D01*
X0466774Y0167514D01*
X0466942Y0167537D01*
X0467110Y0167556D01*
X0467278Y0167570D01*
X0467447Y0167581D01*
X0467616Y0167587D01*
X0467785Y0167589D01*
X0467954Y0167587D01*
X0468123Y0167581D01*
X0468292Y0167570D01*
X0468460Y0167556D01*
X0468628Y0167537D01*
X0468796Y0167514D01*
X0468963Y0167488D01*
X0469129Y0167457D01*
X0469295Y0167422D01*
X0469459Y0167383D01*
X0469623Y0167339D01*
X0469785Y0167292D01*
X0469946Y0167241D01*
X0470106Y0167186D01*
X0470265Y0167127D01*
X0470422Y0167065D01*
X0470577Y0166998D01*
X0470731Y0166927D01*
X0470883Y0166853D01*
X0471033Y0166775D01*
X0471181Y0166694D01*
X0471327Y0166609D01*
X0471471Y0166520D01*
X0471613Y0166428D01*
X0471752Y0166332D01*
X0471889Y0166233D01*
X0472024Y0166131D01*
X0472156Y0166025D01*
X0472285Y0165916D01*
X0472412Y0165804D01*
X0472536Y0165689D01*
X0472657Y0165571D01*
X0472775Y0165450D01*
X0472890Y0165326D01*
X0473002Y0165199D01*
X0473111Y0165070D01*
X0473217Y0164938D01*
X0473319Y0164803D01*
X0473418Y0164666D01*
X0473514Y0164527D01*
X0473606Y0164385D01*
X0473695Y0164241D01*
X0473780Y0164095D01*
X0473861Y0163947D01*
X0473939Y0163797D01*
X0474013Y0163645D01*
X0474084Y0163491D01*
X0474151Y0163336D01*
X0474213Y0163179D01*
X0474272Y0163020D01*
X0474327Y0162860D01*
X0474378Y0162699D01*
X0474425Y0162537D01*
X0474469Y0162373D01*
X0474508Y0162209D01*
X0474543Y0162043D01*
X0474574Y0161877D01*
X0474600Y0161710D01*
X0474623Y0161542D01*
X0474642Y0161374D01*
X0474656Y0161206D01*
X0474667Y0161037D01*
X0474673Y0160868D01*
X0474675Y0160699D01*
X0474673Y0160530D01*
X0474667Y0160361D01*
X0474656Y0160192D01*
X0474642Y0160024D01*
X0474623Y0159856D01*
X0474600Y0159688D01*
X0474574Y0159521D01*
X0474543Y0159355D01*
X0474508Y0159189D01*
X0474469Y0159025D01*
X0474425Y0158861D01*
X0474378Y0158699D01*
X0474327Y0158538D01*
X0474272Y0158378D01*
X0474213Y0158219D01*
X0474151Y0158062D01*
X0474084Y0157907D01*
X0474013Y0157753D01*
X0473939Y0157601D01*
X0473861Y0157451D01*
X0473780Y0157303D01*
X0473695Y0157157D01*
X0473606Y0157013D01*
X0473514Y0156871D01*
X0473418Y0156732D01*
X0473319Y0156595D01*
X0473217Y0156460D01*
X0473111Y0156328D01*
X0473002Y0156199D01*
X0472890Y0156072D01*
X0472775Y0155948D01*
X0472657Y0155827D01*
X0472536Y0155709D01*
X0472412Y0155594D01*
X0472285Y0155482D01*
X0472156Y0155373D01*
X0472024Y0155267D01*
X0471889Y0155165D01*
X0471752Y0155066D01*
X0471613Y0154970D01*
X0471471Y0154878D01*
X0471327Y0154789D01*
X0471181Y0154704D01*
X0471033Y0154623D01*
X0470883Y0154545D01*
X0470731Y0154471D01*
X0470577Y0154400D01*
X0470422Y0154333D01*
X0470265Y0154271D01*
X0470106Y0154212D01*
X0469946Y0154157D01*
X0469785Y0154106D01*
X0469623Y0154059D01*
X0469459Y0154015D01*
X0469295Y0153976D01*
X0469129Y0153941D01*
X0468963Y0153910D01*
X0468796Y0153884D01*
X0468628Y0153861D01*
X0468460Y0153842D01*
X0468292Y0153828D01*
X0468123Y0153817D01*
X0467954Y0153811D01*
X0467785Y0153809D01*
X0467616Y0153811D01*
X0467447Y0153817D01*
X0467278Y0153828D01*
X0467110Y0153842D01*
X0466942Y0153861D01*
X0466774Y0153884D01*
X0466607Y0153910D01*
X0466441Y0153941D01*
X0466275Y0153976D01*
X0466111Y0154015D01*
X0465947Y0154059D01*
X0465785Y0154106D01*
X0465624Y0154157D01*
X0465464Y0154212D01*
X0465305Y0154271D01*
X0465148Y0154333D01*
X0464993Y0154400D01*
X0464839Y0154471D01*
X0464687Y0154545D01*
X0464537Y0154623D01*
X0464389Y0154704D01*
X0464243Y0154789D01*
X0464099Y0154878D01*
X0463957Y0154970D01*
X0463818Y0155066D01*
X0463681Y0155165D01*
X0463546Y0155267D01*
X0463414Y0155373D01*
X0463285Y0155482D01*
X0463158Y0155594D01*
X0463034Y0155709D01*
X0462913Y0155827D01*
X0462795Y0155948D01*
X0462680Y0156072D01*
X0462568Y0156199D01*
X0462459Y0156328D01*
X0462353Y0156460D01*
X0462251Y0156595D01*
X0462152Y0156732D01*
X0462056Y0156871D01*
X0461964Y0157013D01*
X0461875Y0157157D01*
X0461790Y0157303D01*
X0461709Y0157451D01*
X0461631Y0157601D01*
X0461557Y0157753D01*
X0461486Y0157907D01*
X0461419Y0158062D01*
X0461357Y0158219D01*
X0461298Y0158378D01*
X0461243Y0158538D01*
X0461192Y0158699D01*
X0461145Y0158861D01*
X0461101Y0159025D01*
X0461062Y0159189D01*
X0461027Y0159355D01*
X0460996Y0159521D01*
X0460970Y0159688D01*
X0460947Y0159856D01*
X0460928Y0160024D01*
X0460914Y0160192D01*
X0460903Y0160361D01*
X0460897Y0160530D01*
X0460895Y0160699D01*
X0460895Y0015030D02*
X0460897Y0015199D01*
X0460903Y0015368D01*
X0460914Y0015537D01*
X0460928Y0015705D01*
X0460947Y0015873D01*
X0460970Y0016041D01*
X0460996Y0016208D01*
X0461027Y0016374D01*
X0461062Y0016540D01*
X0461101Y0016704D01*
X0461145Y0016868D01*
X0461192Y0017030D01*
X0461243Y0017191D01*
X0461298Y0017351D01*
X0461357Y0017510D01*
X0461419Y0017667D01*
X0461486Y0017822D01*
X0461557Y0017976D01*
X0461631Y0018128D01*
X0461709Y0018278D01*
X0461790Y0018426D01*
X0461875Y0018572D01*
X0461964Y0018716D01*
X0462056Y0018858D01*
X0462152Y0018997D01*
X0462251Y0019134D01*
X0462353Y0019269D01*
X0462459Y0019401D01*
X0462568Y0019530D01*
X0462680Y0019657D01*
X0462795Y0019781D01*
X0462913Y0019902D01*
X0463034Y0020020D01*
X0463158Y0020135D01*
X0463285Y0020247D01*
X0463414Y0020356D01*
X0463546Y0020462D01*
X0463681Y0020564D01*
X0463818Y0020663D01*
X0463957Y0020759D01*
X0464099Y0020851D01*
X0464243Y0020940D01*
X0464389Y0021025D01*
X0464537Y0021106D01*
X0464687Y0021184D01*
X0464839Y0021258D01*
X0464993Y0021329D01*
X0465148Y0021396D01*
X0465305Y0021458D01*
X0465464Y0021517D01*
X0465624Y0021572D01*
X0465785Y0021623D01*
X0465947Y0021670D01*
X0466111Y0021714D01*
X0466275Y0021753D01*
X0466441Y0021788D01*
X0466607Y0021819D01*
X0466774Y0021845D01*
X0466942Y0021868D01*
X0467110Y0021887D01*
X0467278Y0021901D01*
X0467447Y0021912D01*
X0467616Y0021918D01*
X0467785Y0021920D01*
X0467954Y0021918D01*
X0468123Y0021912D01*
X0468292Y0021901D01*
X0468460Y0021887D01*
X0468628Y0021868D01*
X0468796Y0021845D01*
X0468963Y0021819D01*
X0469129Y0021788D01*
X0469295Y0021753D01*
X0469459Y0021714D01*
X0469623Y0021670D01*
X0469785Y0021623D01*
X0469946Y0021572D01*
X0470106Y0021517D01*
X0470265Y0021458D01*
X0470422Y0021396D01*
X0470577Y0021329D01*
X0470731Y0021258D01*
X0470883Y0021184D01*
X0471033Y0021106D01*
X0471181Y0021025D01*
X0471327Y0020940D01*
X0471471Y0020851D01*
X0471613Y0020759D01*
X0471752Y0020663D01*
X0471889Y0020564D01*
X0472024Y0020462D01*
X0472156Y0020356D01*
X0472285Y0020247D01*
X0472412Y0020135D01*
X0472536Y0020020D01*
X0472657Y0019902D01*
X0472775Y0019781D01*
X0472890Y0019657D01*
X0473002Y0019530D01*
X0473111Y0019401D01*
X0473217Y0019269D01*
X0473319Y0019134D01*
X0473418Y0018997D01*
X0473514Y0018858D01*
X0473606Y0018716D01*
X0473695Y0018572D01*
X0473780Y0018426D01*
X0473861Y0018278D01*
X0473939Y0018128D01*
X0474013Y0017976D01*
X0474084Y0017822D01*
X0474151Y0017667D01*
X0474213Y0017510D01*
X0474272Y0017351D01*
X0474327Y0017191D01*
X0474378Y0017030D01*
X0474425Y0016868D01*
X0474469Y0016704D01*
X0474508Y0016540D01*
X0474543Y0016374D01*
X0474574Y0016208D01*
X0474600Y0016041D01*
X0474623Y0015873D01*
X0474642Y0015705D01*
X0474656Y0015537D01*
X0474667Y0015368D01*
X0474673Y0015199D01*
X0474675Y0015030D01*
X0474673Y0014861D01*
X0474667Y0014692D01*
X0474656Y0014523D01*
X0474642Y0014355D01*
X0474623Y0014187D01*
X0474600Y0014019D01*
X0474574Y0013852D01*
X0474543Y0013686D01*
X0474508Y0013520D01*
X0474469Y0013356D01*
X0474425Y0013192D01*
X0474378Y0013030D01*
X0474327Y0012869D01*
X0474272Y0012709D01*
X0474213Y0012550D01*
X0474151Y0012393D01*
X0474084Y0012238D01*
X0474013Y0012084D01*
X0473939Y0011932D01*
X0473861Y0011782D01*
X0473780Y0011634D01*
X0473695Y0011488D01*
X0473606Y0011344D01*
X0473514Y0011202D01*
X0473418Y0011063D01*
X0473319Y0010926D01*
X0473217Y0010791D01*
X0473111Y0010659D01*
X0473002Y0010530D01*
X0472890Y0010403D01*
X0472775Y0010279D01*
X0472657Y0010158D01*
X0472536Y0010040D01*
X0472412Y0009925D01*
X0472285Y0009813D01*
X0472156Y0009704D01*
X0472024Y0009598D01*
X0471889Y0009496D01*
X0471752Y0009397D01*
X0471613Y0009301D01*
X0471471Y0009209D01*
X0471327Y0009120D01*
X0471181Y0009035D01*
X0471033Y0008954D01*
X0470883Y0008876D01*
X0470731Y0008802D01*
X0470577Y0008731D01*
X0470422Y0008664D01*
X0470265Y0008602D01*
X0470106Y0008543D01*
X0469946Y0008488D01*
X0469785Y0008437D01*
X0469623Y0008390D01*
X0469459Y0008346D01*
X0469295Y0008307D01*
X0469129Y0008272D01*
X0468963Y0008241D01*
X0468796Y0008215D01*
X0468628Y0008192D01*
X0468460Y0008173D01*
X0468292Y0008159D01*
X0468123Y0008148D01*
X0467954Y0008142D01*
X0467785Y0008140D01*
X0467616Y0008142D01*
X0467447Y0008148D01*
X0467278Y0008159D01*
X0467110Y0008173D01*
X0466942Y0008192D01*
X0466774Y0008215D01*
X0466607Y0008241D01*
X0466441Y0008272D01*
X0466275Y0008307D01*
X0466111Y0008346D01*
X0465947Y0008390D01*
X0465785Y0008437D01*
X0465624Y0008488D01*
X0465464Y0008543D01*
X0465305Y0008602D01*
X0465148Y0008664D01*
X0464993Y0008731D01*
X0464839Y0008802D01*
X0464687Y0008876D01*
X0464537Y0008954D01*
X0464389Y0009035D01*
X0464243Y0009120D01*
X0464099Y0009209D01*
X0463957Y0009301D01*
X0463818Y0009397D01*
X0463681Y0009496D01*
X0463546Y0009598D01*
X0463414Y0009704D01*
X0463285Y0009813D01*
X0463158Y0009925D01*
X0463034Y0010040D01*
X0462913Y0010158D01*
X0462795Y0010279D01*
X0462680Y0010403D01*
X0462568Y0010530D01*
X0462459Y0010659D01*
X0462353Y0010791D01*
X0462251Y0010926D01*
X0462152Y0011063D01*
X0462056Y0011202D01*
X0461964Y0011344D01*
X0461875Y0011488D01*
X0461790Y0011634D01*
X0461709Y0011782D01*
X0461631Y0011932D01*
X0461557Y0012084D01*
X0461486Y0012238D01*
X0461419Y0012393D01*
X0461357Y0012550D01*
X0461298Y0012709D01*
X0461243Y0012869D01*
X0461192Y0013030D01*
X0461145Y0013192D01*
X0461101Y0013356D01*
X0461062Y0013520D01*
X0461027Y0013686D01*
X0460996Y0013852D01*
X0460970Y0014019D01*
X0460947Y0014187D01*
X0460928Y0014355D01*
X0460914Y0014523D01*
X0460903Y0014692D01*
X0460897Y0014861D01*
X0460895Y0015030D01*
X0008140Y0160699D02*
X0008142Y0160868D01*
X0008148Y0161037D01*
X0008159Y0161206D01*
X0008173Y0161374D01*
X0008192Y0161542D01*
X0008215Y0161710D01*
X0008241Y0161877D01*
X0008272Y0162043D01*
X0008307Y0162209D01*
X0008346Y0162373D01*
X0008390Y0162537D01*
X0008437Y0162699D01*
X0008488Y0162860D01*
X0008543Y0163020D01*
X0008602Y0163179D01*
X0008664Y0163336D01*
X0008731Y0163491D01*
X0008802Y0163645D01*
X0008876Y0163797D01*
X0008954Y0163947D01*
X0009035Y0164095D01*
X0009120Y0164241D01*
X0009209Y0164385D01*
X0009301Y0164527D01*
X0009397Y0164666D01*
X0009496Y0164803D01*
X0009598Y0164938D01*
X0009704Y0165070D01*
X0009813Y0165199D01*
X0009925Y0165326D01*
X0010040Y0165450D01*
X0010158Y0165571D01*
X0010279Y0165689D01*
X0010403Y0165804D01*
X0010530Y0165916D01*
X0010659Y0166025D01*
X0010791Y0166131D01*
X0010926Y0166233D01*
X0011063Y0166332D01*
X0011202Y0166428D01*
X0011344Y0166520D01*
X0011488Y0166609D01*
X0011634Y0166694D01*
X0011782Y0166775D01*
X0011932Y0166853D01*
X0012084Y0166927D01*
X0012238Y0166998D01*
X0012393Y0167065D01*
X0012550Y0167127D01*
X0012709Y0167186D01*
X0012869Y0167241D01*
X0013030Y0167292D01*
X0013192Y0167339D01*
X0013356Y0167383D01*
X0013520Y0167422D01*
X0013686Y0167457D01*
X0013852Y0167488D01*
X0014019Y0167514D01*
X0014187Y0167537D01*
X0014355Y0167556D01*
X0014523Y0167570D01*
X0014692Y0167581D01*
X0014861Y0167587D01*
X0015030Y0167589D01*
X0015199Y0167587D01*
X0015368Y0167581D01*
X0015537Y0167570D01*
X0015705Y0167556D01*
X0015873Y0167537D01*
X0016041Y0167514D01*
X0016208Y0167488D01*
X0016374Y0167457D01*
X0016540Y0167422D01*
X0016704Y0167383D01*
X0016868Y0167339D01*
X0017030Y0167292D01*
X0017191Y0167241D01*
X0017351Y0167186D01*
X0017510Y0167127D01*
X0017667Y0167065D01*
X0017822Y0166998D01*
X0017976Y0166927D01*
X0018128Y0166853D01*
X0018278Y0166775D01*
X0018426Y0166694D01*
X0018572Y0166609D01*
X0018716Y0166520D01*
X0018858Y0166428D01*
X0018997Y0166332D01*
X0019134Y0166233D01*
X0019269Y0166131D01*
X0019401Y0166025D01*
X0019530Y0165916D01*
X0019657Y0165804D01*
X0019781Y0165689D01*
X0019902Y0165571D01*
X0020020Y0165450D01*
X0020135Y0165326D01*
X0020247Y0165199D01*
X0020356Y0165070D01*
X0020462Y0164938D01*
X0020564Y0164803D01*
X0020663Y0164666D01*
X0020759Y0164527D01*
X0020851Y0164385D01*
X0020940Y0164241D01*
X0021025Y0164095D01*
X0021106Y0163947D01*
X0021184Y0163797D01*
X0021258Y0163645D01*
X0021329Y0163491D01*
X0021396Y0163336D01*
X0021458Y0163179D01*
X0021517Y0163020D01*
X0021572Y0162860D01*
X0021623Y0162699D01*
X0021670Y0162537D01*
X0021714Y0162373D01*
X0021753Y0162209D01*
X0021788Y0162043D01*
X0021819Y0161877D01*
X0021845Y0161710D01*
X0021868Y0161542D01*
X0021887Y0161374D01*
X0021901Y0161206D01*
X0021912Y0161037D01*
X0021918Y0160868D01*
X0021920Y0160699D01*
X0021918Y0160530D01*
X0021912Y0160361D01*
X0021901Y0160192D01*
X0021887Y0160024D01*
X0021868Y0159856D01*
X0021845Y0159688D01*
X0021819Y0159521D01*
X0021788Y0159355D01*
X0021753Y0159189D01*
X0021714Y0159025D01*
X0021670Y0158861D01*
X0021623Y0158699D01*
X0021572Y0158538D01*
X0021517Y0158378D01*
X0021458Y0158219D01*
X0021396Y0158062D01*
X0021329Y0157907D01*
X0021258Y0157753D01*
X0021184Y0157601D01*
X0021106Y0157451D01*
X0021025Y0157303D01*
X0020940Y0157157D01*
X0020851Y0157013D01*
X0020759Y0156871D01*
X0020663Y0156732D01*
X0020564Y0156595D01*
X0020462Y0156460D01*
X0020356Y0156328D01*
X0020247Y0156199D01*
X0020135Y0156072D01*
X0020020Y0155948D01*
X0019902Y0155827D01*
X0019781Y0155709D01*
X0019657Y0155594D01*
X0019530Y0155482D01*
X0019401Y0155373D01*
X0019269Y0155267D01*
X0019134Y0155165D01*
X0018997Y0155066D01*
X0018858Y0154970D01*
X0018716Y0154878D01*
X0018572Y0154789D01*
X0018426Y0154704D01*
X0018278Y0154623D01*
X0018128Y0154545D01*
X0017976Y0154471D01*
X0017822Y0154400D01*
X0017667Y0154333D01*
X0017510Y0154271D01*
X0017351Y0154212D01*
X0017191Y0154157D01*
X0017030Y0154106D01*
X0016868Y0154059D01*
X0016704Y0154015D01*
X0016540Y0153976D01*
X0016374Y0153941D01*
X0016208Y0153910D01*
X0016041Y0153884D01*
X0015873Y0153861D01*
X0015705Y0153842D01*
X0015537Y0153828D01*
X0015368Y0153817D01*
X0015199Y0153811D01*
X0015030Y0153809D01*
X0014861Y0153811D01*
X0014692Y0153817D01*
X0014523Y0153828D01*
X0014355Y0153842D01*
X0014187Y0153861D01*
X0014019Y0153884D01*
X0013852Y0153910D01*
X0013686Y0153941D01*
X0013520Y0153976D01*
X0013356Y0154015D01*
X0013192Y0154059D01*
X0013030Y0154106D01*
X0012869Y0154157D01*
X0012709Y0154212D01*
X0012550Y0154271D01*
X0012393Y0154333D01*
X0012238Y0154400D01*
X0012084Y0154471D01*
X0011932Y0154545D01*
X0011782Y0154623D01*
X0011634Y0154704D01*
X0011488Y0154789D01*
X0011344Y0154878D01*
X0011202Y0154970D01*
X0011063Y0155066D01*
X0010926Y0155165D01*
X0010791Y0155267D01*
X0010659Y0155373D01*
X0010530Y0155482D01*
X0010403Y0155594D01*
X0010279Y0155709D01*
X0010158Y0155827D01*
X0010040Y0155948D01*
X0009925Y0156072D01*
X0009813Y0156199D01*
X0009704Y0156328D01*
X0009598Y0156460D01*
X0009496Y0156595D01*
X0009397Y0156732D01*
X0009301Y0156871D01*
X0009209Y0157013D01*
X0009120Y0157157D01*
X0009035Y0157303D01*
X0008954Y0157451D01*
X0008876Y0157601D01*
X0008802Y0157753D01*
X0008731Y0157907D01*
X0008664Y0158062D01*
X0008602Y0158219D01*
X0008543Y0158378D01*
X0008488Y0158538D01*
X0008437Y0158699D01*
X0008390Y0158861D01*
X0008346Y0159025D01*
X0008307Y0159189D01*
X0008272Y0159355D01*
X0008241Y0159521D01*
X0008215Y0159688D01*
X0008192Y0159856D01*
X0008173Y0160024D01*
X0008159Y0160192D01*
X0008148Y0160361D01*
X0008142Y0160530D01*
X0008140Y0160699D01*
D11*
X0162470Y0121329D03*
X0162470Y0118179D03*
X0162470Y0115030D03*
X0162470Y0111880D03*
X0162470Y0108730D03*
X0162470Y0105581D03*
X0162470Y0102431D03*
X0162470Y0099281D03*
X0162470Y0096132D03*
X0162470Y0092982D03*
X0162470Y0089833D03*
X0208140Y0089833D03*
X0208140Y0092982D03*
X0208140Y0096132D03*
X0208140Y0099281D03*
X0208140Y0102431D03*
X0208140Y0105581D03*
X0208140Y0108730D03*
X0208140Y0111880D03*
X0208140Y0115030D03*
X0208140Y0118179D03*
X0208140Y0121329D03*
D12*
X0201053Y0128415D03*
X0197904Y0128415D03*
X0194754Y0128415D03*
X0191604Y0128415D03*
X0188455Y0128415D03*
X0185305Y0128415D03*
X0182156Y0128415D03*
X0179006Y0128415D03*
X0175856Y0128415D03*
X0172707Y0128415D03*
X0169557Y0128415D03*
X0169557Y0082746D03*
X0172707Y0082746D03*
X0175856Y0082746D03*
X0179006Y0082746D03*
X0182156Y0082746D03*
X0185305Y0082746D03*
X0188455Y0082746D03*
X0191604Y0082746D03*
X0194754Y0082746D03*
X0197904Y0082746D03*
X0201053Y0082746D03*
D13*
X0086320Y0073356D03*
X0086320Y0070797D03*
X0086320Y0068238D03*
X0086320Y0065679D03*
X0086320Y0063120D03*
X0086320Y0060561D03*
X0086320Y0058002D03*
X0086320Y0055443D03*
X0063345Y0055443D03*
X0063345Y0058002D03*
X0063345Y0060561D03*
X0063345Y0063120D03*
X0063345Y0065679D03*
X0063345Y0068238D03*
X0063345Y0070797D03*
X0063345Y0073356D03*
D14*
X0377281Y0070305D02*
X0383881Y0070305D01*
X0383881Y0060305D02*
X0377281Y0060305D01*
X0377281Y0050305D02*
X0383881Y0050305D01*
X0383881Y0093612D02*
X0377281Y0093612D01*
X0377281Y0103612D02*
X0383881Y0103612D01*
X0383881Y0113612D02*
X0377281Y0113612D01*
X0377281Y0136919D02*
X0383881Y0136919D01*
X0383881Y0146919D02*
X0377281Y0146919D01*
X0377281Y0156919D02*
X0383881Y0156919D01*
D15*
X0229400Y0066171D03*
D16*
X0239400Y0066171D03*
X0249400Y0066171D03*
X0249400Y0056171D03*
X0239400Y0056171D03*
X0229400Y0056171D03*
D17*
X0196526Y0050463D03*
X0189833Y0050463D03*
X0184715Y0050463D03*
X0178022Y0050463D03*
X0160108Y0051447D03*
X0153415Y0051447D03*
X0174478Y0038061D03*
X0174478Y0031368D03*
X0092785Y0061880D03*
X0092785Y0068573D03*
X0070541Y0089833D03*
X0063848Y0089833D03*
X0030778Y0076447D03*
X0030778Y0069754D03*
X0030778Y0048888D03*
X0030778Y0042195D03*
X0146919Y0095344D03*
X0146919Y0102037D03*
X0146919Y0107156D03*
X0146919Y0113848D03*
X0070541Y0122313D03*
X0063848Y0122313D03*
X0236486Y0119754D03*
X0236486Y0113061D03*
X0237470Y0102037D03*
X0237470Y0095344D03*
X0283337Y0092785D03*
X0290030Y0092785D03*
X0290030Y0106565D03*
X0283337Y0106565D03*
X0283337Y0120344D03*
X0290030Y0120344D03*
X0248691Y0077037D03*
X0241998Y0077037D03*
X0289636Y0046919D03*
X0289636Y0040226D03*
D18*
X0276841Y0032156D03*
X0276841Y0025463D03*
X0249281Y0025463D03*
X0249281Y0032156D03*
X0169557Y0050069D03*
X0169557Y0056762D03*
X0146919Y0050856D03*
X0146919Y0044163D03*
X0146919Y0038061D03*
X0146919Y0031368D03*
X0038061Y0035699D03*
X0031368Y0035699D03*
X0031368Y0055384D03*
X0038061Y0055384D03*
X0038061Y0063258D03*
X0031368Y0063258D03*
X0031368Y0082943D03*
X0038061Y0082943D03*
X0166604Y0145541D03*
X0180384Y0145541D03*
X0194163Y0145541D03*
X0207943Y0145541D03*
X0207943Y0152234D03*
X0194163Y0152234D03*
X0180384Y0152234D03*
X0166604Y0152234D03*
X0265030Y0101053D03*
X0265030Y0094360D03*
X0261486Y0077037D03*
X0254793Y0077037D03*
D19*
X0222234Y0093758D03*
X0222234Y0112758D03*
D20*
X0258061Y0118376D03*
X0268061Y0118376D03*
X0263061Y0110876D03*
X0160699Y0045167D03*
X0165699Y0037667D03*
X0155699Y0037667D03*
X0185226Y0039636D03*
X0195226Y0039636D03*
X0190226Y0032136D03*
X0067195Y0098612D03*
X0074695Y0103612D03*
X0067195Y0108612D03*
X0067195Y0131093D03*
X0074695Y0136093D03*
X0067195Y0141093D03*
D21*
X0015030Y0135108D03*
X0015030Y0121329D03*
X0015030Y0107549D03*
X0015030Y0093770D03*
X0015030Y0079990D03*
X0015030Y0066211D03*
X0015030Y0052431D03*
X0015030Y0038652D03*
X0235502Y0015030D03*
X0249281Y0015030D03*
X0263061Y0015030D03*
X0276841Y0015030D03*
X0290620Y0015030D03*
X0304400Y0015030D03*
X0318179Y0015030D03*
X0331959Y0015030D03*
X0345738Y0015030D03*
X0359518Y0015030D03*
X0400856Y0025856D03*
X0400856Y0039636D03*
X0400856Y0053415D03*
X0400856Y0067195D03*
X0400856Y0080974D03*
X0400856Y0094754D03*
X0400856Y0108533D03*
X0400856Y0122313D03*
X0400856Y0136093D03*
X0400856Y0149872D03*
X0263061Y0160699D03*
X0249281Y0160699D03*
X0235502Y0160699D03*
X0221722Y0160699D03*
X0207943Y0160699D03*
X0194163Y0160699D03*
X0180384Y0160699D03*
X0166604Y0160699D03*
X0152825Y0160699D03*
X0139045Y0160699D03*
X0125266Y0160699D03*
X0111486Y0160699D03*
X0097707Y0160699D03*
X0083927Y0160699D03*
D22*
X0206959Y0029486D03*
X0214833Y0029486D03*
X0214833Y0018289D03*
X0206959Y0018289D03*
D23*
X0194478Y0014061D02*
X0194478Y0008124D01*
X0184478Y0008124D02*
X0184478Y0014061D01*
X0174478Y0014061D02*
X0174478Y0008124D01*
X0164478Y0008124D02*
X0164478Y0014061D01*
X0154478Y0014061D02*
X0154478Y0008124D01*
X0144478Y0008124D02*
X0144478Y0014061D01*
X0134478Y0014061D02*
X0134478Y0008124D01*
X0124478Y0008124D02*
X0124478Y0014061D01*
X0114478Y0014061D02*
X0114478Y0008124D01*
X0104478Y0008124D02*
X0104478Y0014061D01*
X0094478Y0014061D02*
X0094478Y0008124D01*
X0084478Y0008124D02*
X0084478Y0014061D01*
X0074478Y0014061D02*
X0074478Y0008124D01*
X0064478Y0008124D02*
X0064478Y0014061D01*
X0054478Y0014061D02*
X0054478Y0008124D01*
X0044478Y0008124D02*
X0044478Y0014061D01*
D24*
X0274872Y0042904D03*
X0274872Y0067864D03*
D25*
X0304400Y0025404D03*
X0304400Y0020404D03*
X0023888Y0038620D03*
X0023888Y0042620D03*
X0023888Y0048463D03*
X0023888Y0052463D03*
X0023888Y0066179D03*
X0023888Y0070179D03*
X0023888Y0076022D03*
X0023888Y0080022D03*
D26*
X0304400Y0025404D02*
X0304400Y0020404D01*
D27*
X0047510Y0035699D02*
X0045010Y0035699D01*
X0023888Y0039120D02*
X0023888Y0042120D01*
X0023888Y0048963D02*
X0023888Y0051963D01*
X0045010Y0055384D02*
X0047510Y0055384D01*
X0047510Y0063258D02*
X0045010Y0063258D01*
X0023888Y0066679D02*
X0023888Y0069679D01*
X0023888Y0076522D02*
X0023888Y0079522D01*
X0045010Y0082943D02*
X0047510Y0082943D01*
D28*
X0047510Y0082943D03*
X0050710Y0082943D03*
X0044310Y0082943D03*
X0044310Y0063258D03*
X0047510Y0063258D03*
X0050710Y0063258D03*
X0050710Y0055384D03*
X0047510Y0055384D03*
X0044310Y0055384D03*
X0044310Y0035699D03*
X0047510Y0035699D03*
X0050710Y0035699D03*
X0136289Y0094754D03*
X0139833Y0094754D03*
D29*
X0178022Y0050463D02*
X0178022Y0044744D01*
X0178022Y0039636D01*
X0182150Y0039636D01*
X0185226Y0039636D01*
X0178022Y0039636D02*
X0176053Y0039636D01*
X0174478Y0038061D01*
X0172246Y0038061D01*
X0171852Y0037667D01*
X0165699Y0037667D01*
X0235502Y0015030D02*
X0235502Y0009124D01*
X0237470Y0007156D01*
X0261093Y0007156D01*
X0263061Y0009124D01*
X0263061Y0015030D01*
X0304400Y0015030D02*
X0304400Y0020404D01*
X0345738Y0015030D02*
X0356565Y0025856D01*
X0400856Y0025856D01*
X0407953Y0025856D01*
X0424090Y0041994D01*
X0424090Y0154622D01*
X0408418Y0170294D01*
X0093523Y0170294D01*
X0083927Y0160699D01*
X0111486Y0160699D02*
X0118599Y0153586D01*
X0131932Y0153586D01*
X0139045Y0160699D01*
D30*
X0259124Y0156540D02*
X0259124Y0128807D01*
X0275220Y0128807D01*
X0276205Y0128399D01*
X0276960Y0127644D01*
X0280047Y0124556D01*
X0280382Y0124891D01*
X0286291Y0124891D01*
X0286683Y0124499D01*
X0287075Y0124891D01*
X0292984Y0124891D01*
X0294379Y0123496D01*
X0294379Y0123026D01*
X0367096Y0123026D01*
X0375555Y0131485D01*
X0374063Y0132103D01*
X0372465Y0133701D01*
X0371600Y0135789D01*
X0371600Y0138049D01*
X0372465Y0140137D01*
X0374063Y0141735D01*
X0374506Y0141919D01*
X0374063Y0142103D01*
X0372465Y0143701D01*
X0371600Y0145789D01*
X0371600Y0148049D01*
X0372465Y0150137D01*
X0374063Y0151735D01*
X0374790Y0152037D01*
X0374408Y0152231D01*
X0373710Y0152739D01*
X0373100Y0153349D01*
X0372593Y0154047D01*
X0372201Y0154815D01*
X0371935Y0155636D01*
X0371800Y0156488D01*
X0371800Y0156919D01*
X0380581Y0156919D01*
X0380581Y0156919D01*
X0389362Y0156919D01*
X0389362Y0156488D01*
X0389227Y0155636D01*
X0389045Y0155077D01*
X0389197Y0155228D01*
X0391519Y0156190D01*
X0402113Y0156190D01*
X0403064Y0155796D01*
X0403310Y0155796D01*
X0403485Y0155622D01*
X0404435Y0155228D01*
X0406213Y0153451D01*
X0406606Y0152500D01*
X0406781Y0152326D01*
X0406781Y0152079D01*
X0407174Y0151129D01*
X0407174Y0148615D01*
X0406781Y0147665D01*
X0406781Y0147418D01*
X0406606Y0147244D01*
X0406213Y0146293D01*
X0404435Y0144516D01*
X0403485Y0144122D01*
X0403310Y0143948D01*
X0403064Y0143948D01*
X0402113Y0143554D01*
X0397163Y0143554D01*
X0397074Y0143340D01*
X0395297Y0141563D01*
X0392975Y0140601D01*
X0388233Y0140601D01*
X0388697Y0140137D01*
X0389562Y0138049D01*
X0389562Y0135789D01*
X0388697Y0133701D01*
X0387099Y0132103D01*
X0385011Y0131238D01*
X0382869Y0131238D01*
X0382854Y0131200D01*
X0369725Y0118072D01*
X0368740Y0117663D01*
X0294379Y0117663D01*
X0294379Y0117193D01*
X0292984Y0115798D01*
X0287075Y0115798D01*
X0286683Y0116190D01*
X0286291Y0115798D01*
X0280382Y0115798D01*
X0278987Y0117193D01*
X0278987Y0118056D01*
X0278949Y0118072D01*
X0273576Y0123444D01*
X0259124Y0123444D01*
X0259124Y0123157D01*
X0260041Y0123157D01*
X0262842Y0120356D01*
X0262842Y0118376D01*
X0259124Y0118376D01*
X0259124Y0118376D01*
X0262842Y0118376D01*
X0262842Y0117076D01*
X0263080Y0117076D01*
X0263080Y0120439D01*
X0265998Y0123357D01*
X0270124Y0123357D01*
X0273042Y0120439D01*
X0273042Y0117076D01*
X0273171Y0117076D01*
X0274157Y0116668D01*
X0274911Y0115914D01*
X0280047Y0110777D01*
X0280382Y0111111D01*
X0286291Y0111111D01*
X0286683Y0110720D01*
X0287075Y0111111D01*
X0292984Y0111111D01*
X0294379Y0109717D01*
X0294379Y0108854D01*
X0294417Y0108838D01*
X0303612Y0099643D01*
X0302700Y0101846D01*
X0302700Y0105379D01*
X0304052Y0108643D01*
X0306550Y0111141D01*
X0309814Y0112493D01*
X0313347Y0112493D01*
X0316611Y0111141D01*
X0319110Y0108643D01*
X0320462Y0105379D01*
X0320462Y0101846D01*
X0319110Y0098581D01*
X0317794Y0097266D01*
X0372641Y0097266D01*
X0372824Y0097190D01*
X0374063Y0098428D01*
X0374506Y0098612D01*
X0374063Y0098796D01*
X0372465Y0100394D01*
X0371600Y0102482D01*
X0371600Y0104742D01*
X0372465Y0106830D01*
X0374063Y0108428D01*
X0374790Y0108730D01*
X0374408Y0108924D01*
X0373710Y0109431D01*
X0373100Y0110041D01*
X0372593Y0110739D01*
X0372201Y0111508D01*
X0371935Y0112329D01*
X0371800Y0113181D01*
X0371800Y0113612D01*
X0380581Y0113612D01*
X0380581Y0113612D01*
X0380581Y0119093D01*
X0384312Y0119093D01*
X0385164Y0118958D01*
X0385985Y0118692D01*
X0386753Y0118300D01*
X0387422Y0117814D01*
X0397277Y0127669D01*
X0398228Y0128063D01*
X0398402Y0128237D01*
X0398649Y0128237D01*
X0399446Y0128568D01*
X0395500Y0132514D01*
X0395106Y0133464D01*
X0394932Y0133639D01*
X0394932Y0133885D01*
X0394538Y0134836D01*
X0394538Y0137349D01*
X0394932Y0138300D01*
X0394932Y0138546D01*
X0395106Y0138721D01*
X0395500Y0139671D01*
X0397277Y0141449D01*
X0398228Y0141842D01*
X0398402Y0142017D01*
X0398649Y0142017D01*
X0399600Y0142411D01*
X0402113Y0142411D01*
X0403064Y0142017D01*
X0403310Y0142017D01*
X0403485Y0141842D01*
X0404435Y0141449D01*
X0414295Y0131589D01*
X0416072Y0129812D01*
X0417034Y0127489D01*
X0417034Y0117136D01*
X0416072Y0114814D01*
X0409791Y0108533D01*
X0414315Y0104010D01*
X0416092Y0102233D01*
X0417054Y0099911D01*
X0417054Y0089597D01*
X0416092Y0087275D01*
X0407174Y0078357D01*
X0407174Y0052159D01*
X0406781Y0051208D01*
X0406781Y0050961D01*
X0406606Y0050787D01*
X0406213Y0049836D01*
X0404435Y0048059D01*
X0403485Y0047665D01*
X0403310Y0047491D01*
X0403064Y0047491D01*
X0402113Y0047097D01*
X0399600Y0047097D01*
X0398649Y0047491D01*
X0398402Y0047491D01*
X0398228Y0047665D01*
X0397277Y0048059D01*
X0395500Y0049836D01*
X0395106Y0050787D01*
X0394932Y0050961D01*
X0394932Y0051208D01*
X0394538Y0052159D01*
X0394538Y0057202D01*
X0392285Y0054949D01*
X0389963Y0053987D01*
X0388233Y0053987D01*
X0388697Y0053523D01*
X0389562Y0051435D01*
X0389562Y0049175D01*
X0388697Y0047087D01*
X0387099Y0045489D01*
X0385011Y0044624D01*
X0376151Y0044624D01*
X0374063Y0045489D01*
X0372465Y0047087D01*
X0371600Y0049175D01*
X0371600Y0051435D01*
X0372465Y0053523D01*
X0373018Y0054076D01*
X0336990Y0090104D01*
X0294379Y0090104D01*
X0294379Y0089634D01*
X0292984Y0088239D01*
X0287075Y0088239D01*
X0286683Y0088631D01*
X0286291Y0088239D01*
X0280382Y0088239D01*
X0278987Y0089634D01*
X0278987Y0090497D01*
X0278949Y0090512D01*
X0278195Y0091267D01*
X0278195Y0091267D01*
X0274865Y0094596D01*
X0269576Y0094596D01*
X0269576Y0091405D01*
X0268181Y0090011D01*
X0262867Y0090011D01*
X0262823Y0089967D01*
X0261507Y0089422D01*
X0260083Y0089422D01*
X0259124Y0089819D01*
X0259124Y0083851D01*
X0269092Y0083851D01*
X0270256Y0083368D01*
X0271148Y0082477D01*
X0277558Y0076066D01*
X0277890Y0075265D01*
X0281173Y0075265D01*
X0282568Y0073870D01*
X0282568Y0061858D01*
X0281617Y0060907D01*
X0289993Y0052531D01*
X0290434Y0051466D01*
X0292591Y0051466D01*
X0292756Y0051300D01*
X0295832Y0051300D01*
X0297442Y0050633D01*
X0298674Y0049401D01*
X0299341Y0047791D01*
X0299341Y0036536D01*
X0301157Y0036536D01*
X0302767Y0035869D01*
X0303999Y0034637D01*
X0306881Y0031755D01*
X0306881Y0031755D01*
X0308113Y0030523D01*
X0308780Y0028913D01*
X0308780Y0028140D01*
X0309281Y0027640D01*
X0309281Y0023167D01*
X0309102Y0022989D01*
X0309223Y0022698D01*
X0309281Y0022640D01*
X0309281Y0022558D01*
X0309733Y0021465D01*
X0309733Y0018074D01*
X0310324Y0017483D01*
X0310324Y0012576D01*
X0306854Y0009105D01*
X0301946Y0009105D01*
X0298475Y0012576D01*
X0298475Y0017483D01*
X0299066Y0018074D01*
X0299066Y0021465D01*
X0299519Y0022558D01*
X0299519Y0022640D01*
X0299577Y0022698D01*
X0299697Y0022989D01*
X0299519Y0023167D01*
X0299519Y0026727D01*
X0298471Y0027775D01*
X0281387Y0027775D01*
X0281387Y0022508D01*
X0280009Y0021130D01*
X0280009Y0020239D01*
X0282765Y0017483D01*
X0282765Y0012576D01*
X0279295Y0009105D01*
X0274387Y0009105D01*
X0270916Y0012576D01*
X0270916Y0017483D01*
X0273672Y0020239D01*
X0273672Y0021130D01*
X0272294Y0022508D01*
X0272294Y0027775D01*
X0259124Y0027775D01*
X0259124Y0019188D01*
X0260690Y0020754D01*
X0263061Y0020754D01*
X0263061Y0015030D01*
X0263061Y0015030D01*
X0263061Y0020754D01*
X0265432Y0020754D01*
X0268785Y0017401D01*
X0268785Y0015030D01*
X0263061Y0015030D01*
X0263061Y0015029D01*
X0263061Y0009305D01*
X0263061Y0015029D01*
X0263061Y0015029D01*
X0268785Y0015029D01*
X0268785Y0012658D01*
X0265432Y0009305D01*
X0263061Y0009305D01*
X0260690Y0009305D01*
X0259124Y0010871D01*
X0259124Y0005187D01*
X0467785Y0005187D01*
X0467785Y0005759D01*
X0465941Y0005759D01*
X0462534Y0007170D01*
X0459926Y0009778D01*
X0458515Y0013185D01*
X0458515Y0016874D01*
X0459926Y0020281D01*
X0462534Y0022889D01*
X0465941Y0024300D01*
X0467785Y0024300D01*
X0467785Y0151428D01*
X0465941Y0151428D01*
X0462534Y0152839D01*
X0459926Y0155447D01*
X0458515Y0158855D01*
X0458515Y0162543D01*
X0459926Y0165950D01*
X0462534Y0168558D01*
X0465941Y0169970D01*
X0467785Y0169970D01*
X0467785Y0170541D01*
X0415714Y0170541D01*
X0428612Y0157644D01*
X0429424Y0155683D01*
X0429424Y0040933D01*
X0428612Y0038972D01*
X0427112Y0037472D01*
X0412475Y0022835D01*
X0412475Y0022835D01*
X0410974Y0021334D01*
X0409014Y0020522D01*
X0403901Y0020522D01*
X0403310Y0019932D01*
X0398402Y0019932D01*
X0397812Y0020522D01*
X0362403Y0020522D01*
X0365442Y0017483D01*
X0365442Y0012576D01*
X0361972Y0009105D01*
X0357064Y0009105D01*
X0353593Y0012576D01*
X0353593Y0015341D01*
X0351663Y0013411D01*
X0351663Y0012576D01*
X0348192Y0009105D01*
X0343284Y0009105D01*
X0339814Y0012576D01*
X0339814Y0017483D01*
X0343284Y0020954D01*
X0344119Y0020954D01*
X0352043Y0028878D01*
X0353544Y0030378D01*
X0355504Y0031190D01*
X0397812Y0031190D01*
X0398402Y0031781D01*
X0403310Y0031781D01*
X0403901Y0031190D01*
X0405743Y0031190D01*
X0418756Y0044203D01*
X0418756Y0152413D01*
X0406209Y0164961D01*
X0266895Y0164961D01*
X0268785Y0163070D01*
X0268785Y0160699D01*
X0263061Y0160699D01*
X0263061Y0160699D01*
X0268785Y0160699D01*
X0268785Y0158328D01*
X0265432Y0154974D01*
X0263061Y0154974D01*
X0263061Y0160699D01*
X0263061Y0160699D01*
X0263061Y0154974D01*
X0260690Y0154974D01*
X0259124Y0156540D01*
X0259124Y0154697D02*
X0307149Y0154697D01*
X0306550Y0154448D02*
X0304052Y0151950D01*
X0302700Y0148686D01*
X0302700Y0145153D01*
X0304052Y0141889D01*
X0306550Y0139390D01*
X0309814Y0138038D01*
X0313347Y0138038D01*
X0316611Y0139390D01*
X0319110Y0141889D01*
X0320462Y0145153D01*
X0320462Y0148686D01*
X0319110Y0151950D01*
X0316611Y0154448D01*
X0313347Y0155800D01*
X0309814Y0155800D01*
X0306550Y0154448D01*
X0304437Y0152336D02*
X0259124Y0152336D01*
X0259124Y0149975D02*
X0303234Y0149975D01*
X0302700Y0147614D02*
X0259124Y0147614D01*
X0259124Y0145254D02*
X0302700Y0145254D01*
X0303636Y0142893D02*
X0259124Y0142893D01*
X0259124Y0140532D02*
X0305408Y0140532D01*
X0309492Y0138172D02*
X0259124Y0138172D01*
X0259124Y0135811D02*
X0371600Y0135811D01*
X0371650Y0138172D02*
X0313669Y0138172D01*
X0317753Y0140532D02*
X0372859Y0140532D01*
X0373273Y0142893D02*
X0319526Y0142893D01*
X0320462Y0145254D02*
X0371821Y0145254D01*
X0371600Y0147614D02*
X0320462Y0147614D01*
X0319928Y0149975D02*
X0372397Y0149975D01*
X0374264Y0152336D02*
X0318724Y0152336D01*
X0316012Y0154697D02*
X0372262Y0154697D01*
X0371800Y0156919D02*
X0380581Y0156919D01*
X0389362Y0156919D01*
X0389362Y0157351D01*
X0389227Y0158203D01*
X0388960Y0159023D01*
X0388569Y0159792D01*
X0388061Y0160490D01*
X0387451Y0161100D01*
X0386753Y0161607D01*
X0385985Y0161999D01*
X0385164Y0162265D01*
X0384312Y0162400D01*
X0380581Y0162400D01*
X0380581Y0156919D01*
X0380581Y0156919D01*
X0380581Y0156919D01*
X0380581Y0162400D01*
X0376849Y0162400D01*
X0375997Y0162265D01*
X0375177Y0161999D01*
X0374408Y0161607D01*
X0373710Y0161100D01*
X0373100Y0160490D01*
X0372593Y0159792D01*
X0372201Y0159023D01*
X0371935Y0158203D01*
X0371800Y0157351D01*
X0371800Y0156919D01*
X0371800Y0157057D02*
X0267515Y0157057D01*
X0268785Y0159418D02*
X0372402Y0159418D01*
X0380581Y0159418D02*
X0380581Y0159418D01*
X0380581Y0157057D02*
X0380581Y0157057D01*
X0388759Y0159418D02*
X0411751Y0159418D01*
X0414112Y0157057D02*
X0389362Y0157057D01*
X0386417Y0161779D02*
X0409391Y0161779D01*
X0407030Y0164139D02*
X0267716Y0164139D01*
X0268785Y0161779D02*
X0374745Y0161779D01*
X0380581Y0161779D02*
X0380581Y0161779D01*
X0404967Y0154697D02*
X0416473Y0154697D01*
X0418756Y0152336D02*
X0406771Y0152336D01*
X0407174Y0149975D02*
X0418756Y0149975D01*
X0418756Y0147614D02*
X0406781Y0147614D01*
X0405173Y0145254D02*
X0418756Y0145254D01*
X0418756Y0142893D02*
X0396627Y0142893D01*
X0396361Y0140532D02*
X0388302Y0140532D01*
X0389511Y0138172D02*
X0394879Y0138172D01*
X0394538Y0135811D02*
X0389562Y0135811D01*
X0388446Y0133450D02*
X0395112Y0133450D01*
X0396924Y0131089D02*
X0382743Y0131089D01*
X0380382Y0128729D02*
X0399285Y0128729D01*
X0395976Y0126368D02*
X0378021Y0126368D01*
X0375661Y0124007D02*
X0393615Y0124007D01*
X0391255Y0121647D02*
X0373300Y0121647D01*
X0368077Y0124007D02*
X0293868Y0124007D01*
X0278236Y0126368D02*
X0370438Y0126368D01*
X0372799Y0128729D02*
X0275408Y0128729D01*
X0275374Y0121647D02*
X0271835Y0121647D01*
X0273042Y0119286D02*
X0277735Y0119286D01*
X0279255Y0116925D02*
X0273535Y0116925D01*
X0276260Y0114564D02*
X0371882Y0114564D01*
X0371935Y0114896D02*
X0371800Y0114044D01*
X0371800Y0113612D01*
X0380581Y0113612D01*
X0380581Y0113612D01*
X0380581Y0119093D01*
X0376849Y0119093D01*
X0375997Y0118958D01*
X0375177Y0118692D01*
X0374408Y0118300D01*
X0373710Y0117793D01*
X0373100Y0117183D01*
X0372593Y0116485D01*
X0372201Y0115716D01*
X0371935Y0114896D01*
X0372913Y0116925D02*
X0294111Y0116925D01*
X0309115Y0112204D02*
X0278621Y0112204D01*
X0294253Y0109843D02*
X0305252Y0109843D01*
X0303571Y0107482D02*
X0295773Y0107482D01*
X0298134Y0105122D02*
X0302700Y0105122D01*
X0302700Y0102761D02*
X0300494Y0102761D01*
X0302855Y0100400D02*
X0303298Y0100400D01*
X0318568Y0098039D02*
X0373674Y0098039D01*
X0372462Y0100400D02*
X0319863Y0100400D01*
X0320462Y0102761D02*
X0371600Y0102761D01*
X0371757Y0105122D02*
X0320462Y0105122D01*
X0319591Y0107482D02*
X0373116Y0107482D01*
X0373299Y0109843D02*
X0317910Y0109843D01*
X0314047Y0112204D02*
X0371975Y0112204D01*
X0380581Y0114564D02*
X0380581Y0114564D01*
X0380581Y0116925D02*
X0380581Y0116925D01*
X0388894Y0119286D02*
X0370939Y0119286D01*
X0375160Y0131089D02*
X0259124Y0131089D01*
X0259124Y0133450D02*
X0372716Y0133450D01*
X0405352Y0140532D02*
X0418756Y0140532D01*
X0418756Y0138172D02*
X0407712Y0138172D01*
X0410073Y0135811D02*
X0418756Y0135811D01*
X0418756Y0133450D02*
X0412434Y0133450D01*
X0414795Y0131089D02*
X0418756Y0131089D01*
X0418756Y0128729D02*
X0416521Y0128729D01*
X0417034Y0126368D02*
X0418756Y0126368D01*
X0418756Y0124007D02*
X0417034Y0124007D01*
X0417034Y0121647D02*
X0418756Y0121647D01*
X0418756Y0119286D02*
X0417034Y0119286D01*
X0416947Y0116925D02*
X0418756Y0116925D01*
X0418756Y0114564D02*
X0415822Y0114564D01*
X0413462Y0112204D02*
X0418756Y0112204D01*
X0418756Y0109843D02*
X0411101Y0109843D01*
X0410843Y0107482D02*
X0418756Y0107482D01*
X0418756Y0105122D02*
X0413203Y0105122D01*
X0415564Y0102761D02*
X0418756Y0102761D01*
X0418756Y0100400D02*
X0416851Y0100400D01*
X0417054Y0098039D02*
X0418756Y0098039D01*
X0418756Y0095679D02*
X0417054Y0095679D01*
X0417054Y0093318D02*
X0418756Y0093318D01*
X0418756Y0090957D02*
X0417054Y0090957D01*
X0416639Y0088596D02*
X0418756Y0088596D01*
X0418756Y0086236D02*
X0415053Y0086236D01*
X0412692Y0083875D02*
X0418756Y0083875D01*
X0418756Y0081514D02*
X0410331Y0081514D01*
X0407971Y0079154D02*
X0418756Y0079154D01*
X0418756Y0076793D02*
X0407174Y0076793D01*
X0407174Y0074432D02*
X0418756Y0074432D01*
X0418756Y0072071D02*
X0407174Y0072071D01*
X0407174Y0069711D02*
X0418756Y0069711D01*
X0418756Y0067350D02*
X0407174Y0067350D01*
X0407174Y0064989D02*
X0418756Y0064989D01*
X0418756Y0062629D02*
X0407174Y0062629D01*
X0407174Y0060268D02*
X0418756Y0060268D01*
X0418756Y0057907D02*
X0407174Y0057907D01*
X0407174Y0055546D02*
X0418756Y0055546D01*
X0418756Y0053186D02*
X0407174Y0053186D01*
X0406644Y0050825D02*
X0418756Y0050825D01*
X0418756Y0048464D02*
X0404840Y0048464D01*
X0396872Y0048464D02*
X0389267Y0048464D01*
X0389562Y0050825D02*
X0395068Y0050825D01*
X0394538Y0053186D02*
X0388837Y0053186D01*
X0392883Y0055546D02*
X0394538Y0055546D01*
X0372325Y0053186D02*
X0317021Y0053186D01*
X0316611Y0052776D02*
X0319110Y0055274D01*
X0320462Y0058539D01*
X0320462Y0062072D01*
X0319110Y0065336D01*
X0316611Y0067834D01*
X0313347Y0069186D01*
X0309814Y0069186D01*
X0306550Y0067834D01*
X0304052Y0065336D01*
X0302700Y0062072D01*
X0302700Y0058539D01*
X0304052Y0055274D01*
X0306550Y0052776D01*
X0309814Y0051424D01*
X0313347Y0051424D01*
X0316611Y0052776D01*
X0319222Y0055546D02*
X0371548Y0055546D01*
X0369187Y0057907D02*
X0320200Y0057907D01*
X0320462Y0060268D02*
X0366826Y0060268D01*
X0364466Y0062629D02*
X0320231Y0062629D01*
X0319253Y0064989D02*
X0362105Y0064989D01*
X0359744Y0067350D02*
X0317096Y0067350D01*
X0306066Y0067350D02*
X0282568Y0067350D01*
X0282568Y0069711D02*
X0357383Y0069711D01*
X0364967Y0069711D02*
X0371825Y0069711D01*
X0371800Y0069874D02*
X0371935Y0069022D01*
X0372201Y0068201D01*
X0372593Y0067432D01*
X0373100Y0066734D01*
X0373710Y0066124D01*
X0374408Y0065617D01*
X0374790Y0065423D01*
X0374063Y0065121D01*
X0372465Y0063523D01*
X0372081Y0062597D01*
X0342774Y0091904D01*
X0370997Y0091904D01*
X0371562Y0091339D01*
X0372179Y0091084D01*
X0372465Y0090394D01*
X0374063Y0088796D01*
X0376151Y0087931D01*
X0385011Y0087931D01*
X0386010Y0088345D01*
X0385400Y0086872D01*
X0385400Y0075575D01*
X0385164Y0075651D01*
X0384312Y0075786D01*
X0380581Y0075786D01*
X0380581Y0070305D01*
X0380581Y0070305D01*
X0371800Y0070305D01*
X0371800Y0069874D01*
X0371800Y0070305D02*
X0380581Y0070305D01*
X0380581Y0070305D01*
X0380581Y0075786D01*
X0376849Y0075786D01*
X0375997Y0075651D01*
X0375177Y0075385D01*
X0374408Y0074993D01*
X0373710Y0074486D01*
X0373100Y0073876D01*
X0372593Y0073178D01*
X0372201Y0072409D01*
X0371935Y0071589D01*
X0371800Y0070736D01*
X0371800Y0070305D01*
X0372091Y0072071D02*
X0362606Y0072071D01*
X0360245Y0074432D02*
X0373656Y0074432D01*
X0380581Y0074432D02*
X0380581Y0074432D01*
X0380581Y0072071D02*
X0380581Y0072071D01*
X0385400Y0076793D02*
X0357885Y0076793D01*
X0352662Y0074432D02*
X0282006Y0074432D01*
X0282568Y0072071D02*
X0355023Y0072071D01*
X0350301Y0076793D02*
X0276832Y0076793D01*
X0274471Y0079154D02*
X0347941Y0079154D01*
X0345580Y0081514D02*
X0272110Y0081514D01*
X0259124Y0083875D02*
X0343219Y0083875D01*
X0350802Y0083875D02*
X0385400Y0083875D01*
X0385400Y0081514D02*
X0353163Y0081514D01*
X0355524Y0079154D02*
X0385400Y0079154D01*
X0385400Y0086236D02*
X0348442Y0086236D01*
X0346081Y0088596D02*
X0374544Y0088596D01*
X0372231Y0090957D02*
X0343720Y0090957D01*
X0338498Y0088596D02*
X0293342Y0088596D01*
X0286717Y0088596D02*
X0286649Y0088596D01*
X0280024Y0088596D02*
X0259124Y0088596D01*
X0259124Y0086236D02*
X0340858Y0086236D01*
X0367327Y0067350D02*
X0372653Y0067350D01*
X0373931Y0064989D02*
X0369688Y0064989D01*
X0372049Y0062629D02*
X0372094Y0062629D01*
X0371600Y0050825D02*
X0296979Y0050825D01*
X0299062Y0048464D02*
X0371894Y0048464D01*
X0373448Y0046104D02*
X0299341Y0046104D01*
X0299341Y0043743D02*
X0396868Y0043743D01*
X0398485Y0045360D02*
X0395132Y0042007D01*
X0395132Y0039636D01*
X0400856Y0039636D01*
X0400856Y0039636D01*
X0400856Y0045360D01*
X0398485Y0045360D01*
X0400856Y0045360D02*
X0403227Y0045360D01*
X0406581Y0042007D01*
X0406581Y0039636D01*
X0400856Y0039636D01*
X0400856Y0039636D01*
X0395132Y0039636D01*
X0395132Y0037265D01*
X0398485Y0033911D01*
X0400856Y0033911D01*
X0400856Y0039636D01*
X0400856Y0045360D01*
X0400856Y0043743D02*
X0400856Y0043743D01*
X0400856Y0041382D02*
X0400856Y0041382D01*
X0400856Y0039636D02*
X0400856Y0039636D01*
X0400856Y0039636D01*
X0400856Y0033911D01*
X0403227Y0033911D01*
X0406581Y0037265D01*
X0406581Y0039636D01*
X0400856Y0039636D01*
X0400856Y0039021D02*
X0400856Y0039021D01*
X0406581Y0039021D02*
X0413575Y0039021D01*
X0415935Y0041382D02*
X0406581Y0041382D01*
X0404845Y0043743D02*
X0418296Y0043743D01*
X0418756Y0046104D02*
X0387713Y0046104D01*
X0395132Y0041382D02*
X0299341Y0041382D01*
X0299341Y0039021D02*
X0395132Y0039021D01*
X0395736Y0036661D02*
X0299341Y0036661D01*
X0304336Y0034300D02*
X0398097Y0034300D01*
X0400856Y0034300D02*
X0400856Y0034300D01*
X0400856Y0036661D02*
X0400856Y0036661D01*
X0403616Y0034300D02*
X0408853Y0034300D01*
X0406493Y0031939D02*
X0306697Y0031939D01*
X0308504Y0029579D02*
X0352744Y0029579D01*
X0350383Y0027218D02*
X0309281Y0027218D01*
X0309281Y0024857D02*
X0348023Y0024857D01*
X0345662Y0022496D02*
X0309306Y0022496D01*
X0309733Y0020136D02*
X0314907Y0020136D01*
X0315725Y0020954D02*
X0312255Y0017483D01*
X0312255Y0012576D01*
X0315725Y0009105D01*
X0320633Y0009105D01*
X0324104Y0012576D01*
X0324104Y0017483D01*
X0320633Y0020954D01*
X0315725Y0020954D01*
X0312546Y0017775D02*
X0310032Y0017775D01*
X0310324Y0015414D02*
X0312255Y0015414D01*
X0312255Y0013054D02*
X0310324Y0013054D01*
X0308441Y0010693D02*
X0314137Y0010693D01*
X0322221Y0010693D02*
X0328200Y0010693D01*
X0329588Y0009305D02*
X0326234Y0012658D01*
X0326234Y0015029D01*
X0331959Y0015029D01*
X0331959Y0009305D01*
X0334330Y0009305D01*
X0337683Y0012658D01*
X0337683Y0015029D01*
X0331959Y0015029D01*
X0331959Y0015029D01*
X0331959Y0015030D01*
X0331959Y0015030D01*
X0331959Y0020754D01*
X0334330Y0020754D01*
X0337683Y0017401D01*
X0337683Y0015030D01*
X0331959Y0015030D01*
X0331959Y0020754D01*
X0329588Y0020754D01*
X0326234Y0017401D01*
X0326234Y0015030D01*
X0331959Y0015030D01*
X0331959Y0015029D01*
X0331959Y0009305D01*
X0329588Y0009305D01*
X0331959Y0010693D02*
X0331959Y0010693D01*
X0331959Y0013054D02*
X0331959Y0013054D01*
X0331959Y0015414D02*
X0331959Y0015414D01*
X0337683Y0015414D02*
X0339814Y0015414D01*
X0339814Y0013054D02*
X0337683Y0013054D01*
X0335718Y0010693D02*
X0341696Y0010693D01*
X0349780Y0010693D02*
X0355476Y0010693D01*
X0353593Y0013054D02*
X0351663Y0013054D01*
X0363559Y0010693D02*
X0459547Y0010693D01*
X0458569Y0013054D02*
X0365442Y0013054D01*
X0365442Y0015414D02*
X0458515Y0015414D01*
X0458888Y0017775D02*
X0365151Y0017775D01*
X0362790Y0020136D02*
X0398198Y0020136D01*
X0403514Y0020136D02*
X0459866Y0020136D01*
X0462141Y0022496D02*
X0412136Y0022496D01*
X0414497Y0024857D02*
X0467785Y0024857D01*
X0467785Y0027218D02*
X0416858Y0027218D01*
X0419218Y0029579D02*
X0467785Y0029579D01*
X0467785Y0031939D02*
X0421579Y0031939D01*
X0423940Y0034300D02*
X0467785Y0034300D01*
X0467785Y0036661D02*
X0426300Y0036661D01*
X0428632Y0039021D02*
X0467785Y0039021D01*
X0467785Y0041382D02*
X0429424Y0041382D01*
X0429424Y0043743D02*
X0467785Y0043743D01*
X0467785Y0046104D02*
X0429424Y0046104D01*
X0429424Y0048464D02*
X0467785Y0048464D01*
X0467785Y0050825D02*
X0429424Y0050825D01*
X0429424Y0053186D02*
X0467785Y0053186D01*
X0467785Y0055546D02*
X0429424Y0055546D01*
X0429424Y0057907D02*
X0467785Y0057907D01*
X0467785Y0060268D02*
X0429424Y0060268D01*
X0429424Y0062629D02*
X0467785Y0062629D01*
X0467785Y0064989D02*
X0429424Y0064989D01*
X0429424Y0067350D02*
X0467785Y0067350D01*
X0467785Y0069711D02*
X0429424Y0069711D01*
X0429424Y0072071D02*
X0467785Y0072071D01*
X0467785Y0074432D02*
X0429424Y0074432D01*
X0429424Y0076793D02*
X0467785Y0076793D01*
X0467785Y0079154D02*
X0429424Y0079154D01*
X0429424Y0081514D02*
X0467785Y0081514D01*
X0467785Y0083875D02*
X0429424Y0083875D01*
X0429424Y0086236D02*
X0467785Y0086236D01*
X0467785Y0088596D02*
X0429424Y0088596D01*
X0429424Y0090957D02*
X0467785Y0090957D01*
X0467785Y0093318D02*
X0429424Y0093318D01*
X0429424Y0095679D02*
X0467785Y0095679D01*
X0467785Y0098039D02*
X0429424Y0098039D01*
X0429424Y0100400D02*
X0467785Y0100400D01*
X0467785Y0102761D02*
X0429424Y0102761D01*
X0429424Y0105122D02*
X0467785Y0105122D01*
X0467785Y0107482D02*
X0429424Y0107482D01*
X0429424Y0109843D02*
X0467785Y0109843D01*
X0467785Y0112204D02*
X0429424Y0112204D01*
X0429424Y0114564D02*
X0467785Y0114564D01*
X0467785Y0116925D02*
X0429424Y0116925D01*
X0429424Y0119286D02*
X0467785Y0119286D01*
X0467785Y0121647D02*
X0429424Y0121647D01*
X0429424Y0124007D02*
X0467785Y0124007D01*
X0467785Y0126368D02*
X0429424Y0126368D01*
X0429424Y0128729D02*
X0467785Y0128729D01*
X0467785Y0131089D02*
X0429424Y0131089D01*
X0429424Y0133450D02*
X0467785Y0133450D01*
X0467785Y0135811D02*
X0429424Y0135811D01*
X0429424Y0138172D02*
X0467785Y0138172D01*
X0467785Y0140532D02*
X0429424Y0140532D01*
X0429424Y0142893D02*
X0467785Y0142893D01*
X0467785Y0145254D02*
X0429424Y0145254D01*
X0429424Y0147614D02*
X0467785Y0147614D01*
X0467785Y0149975D02*
X0429424Y0149975D01*
X0429424Y0152336D02*
X0463750Y0152336D01*
X0460677Y0154697D02*
X0429424Y0154697D01*
X0428855Y0157057D02*
X0459259Y0157057D01*
X0458515Y0159418D02*
X0426838Y0159418D01*
X0424477Y0161779D02*
X0458515Y0161779D01*
X0459176Y0164139D02*
X0422116Y0164139D01*
X0419756Y0166500D02*
X0460476Y0166500D01*
X0463264Y0168861D02*
X0417395Y0168861D01*
X0263061Y0159418D02*
X0263061Y0159418D01*
X0263061Y0157057D02*
X0263061Y0157057D01*
X0264287Y0121647D02*
X0261552Y0121647D01*
X0262842Y0119286D02*
X0263080Y0119286D01*
X0269576Y0093318D02*
X0276144Y0093318D01*
X0278504Y0090957D02*
X0269128Y0090957D01*
X0282568Y0064989D02*
X0303908Y0064989D01*
X0302930Y0062629D02*
X0282568Y0062629D01*
X0282256Y0060268D02*
X0302700Y0060268D01*
X0302961Y0057907D02*
X0284617Y0057907D01*
X0286978Y0055546D02*
X0303939Y0055546D01*
X0306140Y0053186D02*
X0289338Y0053186D01*
X0229400Y0053628D02*
X0221232Y0061795D01*
X0163763Y0061795D01*
X0162582Y0061795D01*
X0162274Y0061486D02*
X0153415Y0052628D01*
X0153415Y0050856D02*
X0150472Y0050856D01*
X0146919Y0050856D01*
X0146919Y0054213D01*
X0132894Y0068238D01*
X0130384Y0068238D01*
X0129990Y0068238D02*
X0090557Y0068238D01*
X0089658Y0068238D01*
X0129978Y0084555D02*
X0136289Y0090866D01*
X0140739Y0086417D01*
X0136289Y0090866D02*
X0136289Y0094754D01*
X0030778Y0076447D02*
X0027909Y0076447D01*
X0027483Y0076022D01*
X0023888Y0076022D01*
X0023888Y0080022D02*
X0019505Y0080022D01*
X0019473Y0079990D02*
X0015030Y0079990D01*
X0023888Y0070179D02*
X0027483Y0070179D01*
X0027909Y0069754D01*
X0030778Y0069754D01*
X0023888Y0066179D02*
X0019505Y0066179D01*
X0019473Y0066211D02*
X0015030Y0066211D01*
X0015030Y0052431D02*
X0019473Y0052431D01*
X0019505Y0052463D02*
X0023888Y0052463D01*
X0023888Y0048463D02*
X0027483Y0048463D01*
X0027909Y0048888D01*
X0030778Y0048888D01*
X0030778Y0042195D02*
X0027909Y0042195D01*
X0027483Y0042620D01*
X0023888Y0042620D01*
X0023888Y0038620D02*
X0019505Y0038620D01*
X0019473Y0038652D02*
X0015030Y0038652D01*
X0195226Y0039636D02*
X0196758Y0039636D01*
X0204990Y0031404D01*
X0206959Y0029486D01*
X0214833Y0029486D01*
X0214833Y0018289D02*
X0207043Y0018573D01*
X0209250Y0018418D01*
X0205384Y0018418D01*
X0198058Y0011093D01*
X0194478Y0011093D01*
X0259124Y0010693D02*
X0259302Y0010693D01*
X0263061Y0010693D02*
X0263061Y0010693D01*
X0263061Y0013054D02*
X0263061Y0013054D01*
X0263061Y0015414D02*
X0263061Y0015414D01*
X0268785Y0015414D02*
X0270916Y0015414D01*
X0270916Y0013054D02*
X0268785Y0013054D01*
X0266820Y0010693D02*
X0272799Y0010693D01*
X0280882Y0010693D02*
X0286861Y0010693D01*
X0288249Y0009305D02*
X0284896Y0012658D01*
X0284896Y0015029D01*
X0290620Y0015029D01*
X0290620Y0015029D01*
X0290620Y0009305D01*
X0288249Y0009305D01*
X0290620Y0009305D02*
X0292991Y0009305D01*
X0296344Y0012658D01*
X0296344Y0015029D01*
X0290620Y0015029D01*
X0290620Y0009305D01*
X0290620Y0010693D02*
X0290620Y0010693D01*
X0290620Y0013054D02*
X0290620Y0013054D01*
X0290620Y0015029D02*
X0290620Y0015030D01*
X0290620Y0020754D01*
X0288249Y0020754D01*
X0284896Y0017401D01*
X0284896Y0015030D01*
X0290620Y0015030D01*
X0290620Y0015030D01*
X0290620Y0020754D01*
X0292991Y0020754D01*
X0296344Y0017401D01*
X0296344Y0015030D01*
X0290620Y0015030D01*
X0290620Y0015029D01*
X0290620Y0015414D02*
X0290620Y0015414D01*
X0284896Y0015414D02*
X0282765Y0015414D01*
X0282765Y0013054D02*
X0284896Y0013054D01*
X0294379Y0010693D02*
X0300358Y0010693D01*
X0298475Y0013054D02*
X0296344Y0013054D01*
X0296344Y0015414D02*
X0298475Y0015414D01*
X0298767Y0017775D02*
X0295970Y0017775D01*
X0293609Y0020136D02*
X0299066Y0020136D01*
X0299493Y0022496D02*
X0281376Y0022496D01*
X0280113Y0020136D02*
X0287631Y0020136D01*
X0290620Y0020136D02*
X0290620Y0020136D01*
X0290620Y0017775D02*
X0290620Y0017775D01*
X0285270Y0017775D02*
X0282473Y0017775D01*
X0273568Y0020136D02*
X0266050Y0020136D01*
X0263061Y0020136D02*
X0263061Y0020136D01*
X0263061Y0017775D02*
X0263061Y0017775D01*
X0260072Y0020136D02*
X0259124Y0020136D01*
X0259124Y0022496D02*
X0272305Y0022496D01*
X0272294Y0024857D02*
X0259124Y0024857D01*
X0259124Y0027218D02*
X0272294Y0027218D01*
X0281387Y0027218D02*
X0299028Y0027218D01*
X0299519Y0024857D02*
X0281387Y0024857D01*
X0271208Y0017775D02*
X0268411Y0017775D01*
X0259124Y0008332D02*
X0461372Y0008332D01*
X0465428Y0005971D02*
X0259124Y0005971D01*
X0321451Y0020136D02*
X0328969Y0020136D01*
X0331959Y0020136D02*
X0331959Y0020136D01*
X0331959Y0017775D02*
X0331959Y0017775D01*
X0334948Y0020136D02*
X0342466Y0020136D01*
X0340105Y0017775D02*
X0337309Y0017775D01*
X0326609Y0017775D02*
X0323812Y0017775D01*
X0324104Y0015414D02*
X0326234Y0015414D01*
X0326234Y0013054D02*
X0324104Y0013054D01*
X0405977Y0036661D02*
X0411214Y0036661D01*
D31*
X0239439Y0048494D03*
X0235502Y0050463D03*
X0219754Y0054400D03*
X0213848Y0054400D03*
X0207943Y0054400D03*
X0202037Y0054400D03*
X0211880Y0038652D03*
X0139045Y0032746D03*
X0131171Y0032746D03*
X0131171Y0020935D03*
X0139045Y0020935D03*
X0079990Y0032746D03*
X0072116Y0032746D03*
X0064242Y0032746D03*
X0056368Y0032746D03*
X0056368Y0024872D03*
X0048494Y0024872D03*
X0040620Y0024872D03*
X0032746Y0024872D03*
X0024872Y0024872D03*
X0024872Y0016998D03*
X0032746Y0016998D03*
X0064242Y0044557D03*
X0072116Y0044557D03*
X0079990Y0044557D03*
X0087864Y0044557D03*
X0095738Y0044557D03*
X0103612Y0044557D03*
X0111486Y0044557D03*
X0119360Y0052431D03*
X0124939Y0052531D03*
X0102547Y0053363D03*
X0103612Y0060305D03*
X0111486Y0060305D03*
X0124955Y0060305D03*
X0130384Y0068238D03*
X0129978Y0084555D03*
X0170541Y0091801D03*
X0178415Y0091801D03*
X0178415Y0097707D03*
X0170541Y0097707D03*
X0170541Y0103612D03*
X0178415Y0103612D03*
X0152825Y0105581D03*
X0141014Y0105581D03*
X0223691Y0137077D03*
X0217785Y0142982D03*
X0231565Y0129203D03*
X0243376Y0117392D03*
X0249281Y0111486D03*
X0428415Y0164636D03*
X0434321Y0164636D03*
X0440226Y0164636D03*
X0446132Y0164636D03*
X0452037Y0164636D03*
X0452037Y0158730D03*
X0446132Y0158730D03*
X0440226Y0158730D03*
X0434321Y0158730D03*
X0440226Y0152825D03*
X0446132Y0152825D03*
X0452037Y0152825D03*
X0452037Y0146919D03*
X0446132Y0146919D03*
X0452037Y0141014D03*
X0024872Y0105581D03*
X0024872Y0099675D03*
X0024872Y0093770D03*
X0024872Y0087864D03*
X0024872Y0060305D03*
X0018967Y0060305D03*
D32*
X0018242Y0061036D02*
X0026815Y0061036D01*
X0026815Y0060300D02*
X0026815Y0062542D01*
X0020399Y0062542D01*
X0020330Y0062611D01*
X0019817Y0062611D01*
X0017486Y0060280D01*
X0015030Y0060280D01*
X0015030Y0058362D01*
X0017486Y0058362D01*
X0019817Y0056031D01*
X0020330Y0056031D01*
X0020399Y0056100D01*
X0026815Y0056100D01*
X0026815Y0058341D01*
X0027795Y0059321D01*
X0026815Y0060300D01*
X0027653Y0059463D02*
X0015030Y0059463D01*
X0017959Y0057889D02*
X0026815Y0057889D01*
X0026815Y0056316D02*
X0019532Y0056316D01*
X0019815Y0062609D02*
X0020331Y0062609D01*
X0039615Y0059321D02*
X0044310Y0059321D01*
X0044310Y0063258D01*
X0050710Y0063258D02*
X0050710Y0060057D01*
X0050710Y0055384D01*
X0044310Y0055384D02*
X0044310Y0059321D01*
X0044310Y0059332D02*
X0044310Y0059310D01*
X0044310Y0059310D01*
X0044310Y0059332D01*
X0044310Y0059332D01*
X0050710Y0060057D02*
X0054532Y0060057D01*
X0054713Y0060238D01*
X0067683Y0059463D02*
X0081983Y0059463D01*
X0081983Y0061036D02*
X0067683Y0061036D01*
X0067683Y0062609D02*
X0082442Y0062609D01*
X0082583Y0062750D02*
X0081983Y0062150D01*
X0081983Y0053854D01*
X0083381Y0052456D01*
X0089259Y0052456D01*
X0090657Y0053854D01*
X0090657Y0057927D01*
X0092589Y0057927D01*
X0092589Y0061683D01*
X0092982Y0061683D01*
X0092982Y0057927D01*
X0094989Y0057927D01*
X0095444Y0058049D01*
X0095851Y0058284D01*
X0096184Y0058617D01*
X0096420Y0059025D01*
X0096541Y0059479D01*
X0096541Y0061683D01*
X0092982Y0061683D01*
X0092982Y0062077D01*
X0096541Y0062077D01*
X0096541Y0064281D01*
X0096437Y0064670D01*
X0127354Y0064670D01*
X0127505Y0064519D01*
X0129118Y0063851D01*
X0131256Y0063851D01*
X0131948Y0064138D01*
X0142367Y0053719D01*
X0142367Y0050793D01*
X0134592Y0043019D01*
X0056667Y0043019D01*
X0055671Y0043431D01*
X0054244Y0043431D01*
X0052925Y0042885D01*
X0052801Y0042761D01*
X0051886Y0042761D01*
X0061580Y0052456D01*
X0066284Y0052456D01*
X0067683Y0053854D01*
X0067683Y0071063D01*
X0067718Y0071078D01*
X0068474Y0071834D01*
X0070040Y0073400D01*
X0078814Y0073400D01*
X0078814Y0070829D01*
X0079223Y0069842D01*
X0080546Y0068519D01*
X0081533Y0068110D01*
X0081983Y0068110D01*
X0081983Y0064090D01*
X0082583Y0063490D01*
X0082583Y0063120D01*
X0082583Y0062750D01*
X0082583Y0063120D02*
X0082953Y0063120D01*
X0082953Y0063120D01*
X0082953Y0063120D01*
X0082583Y0063120D01*
X0081983Y0064183D02*
X0067683Y0064183D01*
X0067683Y0065756D02*
X0081983Y0065756D01*
X0081983Y0067329D02*
X0067683Y0067329D01*
X0067683Y0068903D02*
X0080162Y0068903D01*
X0078960Y0070476D02*
X0067683Y0070476D01*
X0068689Y0072049D02*
X0078814Y0072049D01*
X0089658Y0068238D02*
X0089993Y0068573D01*
X0092785Y0068573D01*
X0091241Y0067554D02*
X0090817Y0067195D01*
X0091241Y0067554D02*
X0090557Y0068238D01*
X0085935Y0068238D01*
X0086320Y0068238D01*
X0090557Y0068238D01*
X0085935Y0068238D01*
X0086320Y0065679D02*
X0089301Y0065679D01*
X0089378Y0065681D01*
X0089454Y0065687D01*
X0089531Y0065696D01*
X0089606Y0065710D01*
X0089681Y0065727D01*
X0089755Y0065749D01*
X0089828Y0065773D01*
X0089899Y0065802D01*
X0089969Y0065834D01*
X0090037Y0065869D01*
X0090103Y0065908D01*
X0090167Y0065951D01*
X0090229Y0065996D01*
X0090288Y0066045D01*
X0090345Y0066096D01*
X0090400Y0066151D01*
X0090451Y0066208D01*
X0090500Y0066267D01*
X0090545Y0066329D01*
X0090588Y0066393D01*
X0090627Y0066459D01*
X0090662Y0066527D01*
X0090694Y0066597D01*
X0090723Y0066668D01*
X0090747Y0066741D01*
X0090769Y0066815D01*
X0090786Y0066890D01*
X0090800Y0066965D01*
X0090809Y0067042D01*
X0090815Y0067118D01*
X0090817Y0067195D01*
X0090557Y0068238D02*
X0089658Y0068238D01*
X0096541Y0064183D02*
X0128317Y0064183D01*
X0133476Y0062609D02*
X0096541Y0062609D01*
X0096541Y0061036D02*
X0135049Y0061036D01*
X0136623Y0059463D02*
X0096537Y0059463D01*
X0092982Y0059463D02*
X0092589Y0059463D01*
X0092589Y0061036D02*
X0092982Y0061036D01*
X0092785Y0061880D02*
X0091545Y0063120D01*
X0086320Y0063120D01*
X0078853Y0063153D01*
X0078399Y0063608D01*
X0081983Y0057889D02*
X0067683Y0057889D01*
X0067683Y0056316D02*
X0081983Y0056316D01*
X0081983Y0054743D02*
X0067683Y0054743D01*
X0066998Y0053169D02*
X0082667Y0053169D01*
X0089973Y0053169D02*
X0142367Y0053169D01*
X0142367Y0051596D02*
X0060720Y0051596D01*
X0059147Y0050023D02*
X0141596Y0050023D01*
X0140023Y0048449D02*
X0057574Y0048449D01*
X0056000Y0046876D02*
X0138449Y0046876D01*
X0136876Y0045303D02*
X0054427Y0045303D01*
X0052854Y0043729D02*
X0135303Y0043729D01*
X0141136Y0040583D02*
X0142367Y0040583D01*
X0142367Y0041018D02*
X0142367Y0035104D01*
X0142756Y0034715D01*
X0142367Y0034326D01*
X0142367Y0028411D01*
X0143765Y0027012D01*
X0144626Y0027012D01*
X0144641Y0026977D01*
X0145397Y0026221D01*
X0151791Y0019827D01*
X0151791Y0018745D01*
X0151444Y0018602D01*
X0149938Y0017095D01*
X0149478Y0015986D01*
X0149019Y0017095D01*
X0147512Y0018602D01*
X0145544Y0019417D01*
X0143413Y0019417D01*
X0141444Y0018602D01*
X0139938Y0017095D01*
X0139124Y0015130D01*
X0139117Y0015175D01*
X0138886Y0015887D01*
X0138546Y0016554D01*
X0138106Y0017159D01*
X0137577Y0017689D01*
X0136971Y0018129D01*
X0136304Y0018468D01*
X0135592Y0018700D01*
X0134853Y0018817D01*
X0134675Y0018817D01*
X0134675Y0015030D01*
X0134281Y0015030D01*
X0134281Y0018817D01*
X0134104Y0018817D01*
X0133365Y0018700D01*
X0132653Y0018468D01*
X0131986Y0018129D01*
X0131380Y0017689D01*
X0130851Y0017159D01*
X0130411Y0016554D01*
X0130071Y0015887D01*
X0129840Y0015175D01*
X0129833Y0015130D01*
X0129019Y0017095D01*
X0127512Y0018602D01*
X0125544Y0019417D01*
X0123413Y0019417D01*
X0121444Y0018602D01*
X0119938Y0017095D01*
X0119478Y0015986D01*
X0119019Y0017095D01*
X0117512Y0018602D01*
X0115544Y0019417D01*
X0113413Y0019417D01*
X0111444Y0018602D01*
X0109938Y0017095D01*
X0109478Y0015986D01*
X0109019Y0017095D01*
X0107512Y0018602D01*
X0105544Y0019417D01*
X0103413Y0019417D01*
X0101444Y0018602D01*
X0099938Y0017095D01*
X0099478Y0015986D01*
X0099019Y0017095D01*
X0097512Y0018602D01*
X0095544Y0019417D01*
X0093413Y0019417D01*
X0091444Y0018602D01*
X0089938Y0017095D01*
X0089478Y0015986D01*
X0089019Y0017095D01*
X0087512Y0018602D01*
X0085544Y0019417D01*
X0083413Y0019417D01*
X0081444Y0018602D01*
X0079938Y0017095D01*
X0079478Y0015986D01*
X0079019Y0017095D01*
X0077512Y0018602D01*
X0075544Y0019417D01*
X0073413Y0019417D01*
X0071444Y0018602D01*
X0069938Y0017095D01*
X0069478Y0015986D01*
X0069019Y0017095D01*
X0067512Y0018602D01*
X0065544Y0019417D01*
X0063413Y0019417D01*
X0061444Y0018602D01*
X0059938Y0017095D01*
X0059478Y0015986D01*
X0059019Y0017095D01*
X0057512Y0018602D01*
X0055544Y0019417D01*
X0053413Y0019417D01*
X0051444Y0018602D01*
X0049938Y0017095D01*
X0049478Y0015986D01*
X0049019Y0017095D01*
X0047512Y0018602D01*
X0045544Y0019417D01*
X0043413Y0019417D01*
X0041444Y0018602D01*
X0039938Y0017095D01*
X0039122Y0015126D01*
X0039122Y0015030D01*
X0024307Y0015030D01*
X0024307Y0016875D01*
X0022894Y0020285D01*
X0020285Y0022894D01*
X0016875Y0024307D01*
X0015030Y0024307D01*
X0015030Y0027492D01*
X0015329Y0027368D01*
X0050073Y0027368D01*
X0051240Y0027851D01*
X0052133Y0028744D01*
X0053401Y0030013D01*
X0053885Y0031180D01*
X0053885Y0031747D01*
X0054347Y0032210D01*
X0054347Y0036257D01*
X0055671Y0036257D01*
X0056667Y0036669D01*
X0136539Y0036669D01*
X0137705Y0037153D01*
X0142367Y0041814D01*
X0142367Y0041206D01*
X0142460Y0041112D01*
X0142367Y0041018D01*
X0142367Y0039010D02*
X0139562Y0039010D01*
X0137989Y0037436D02*
X0142367Y0037436D01*
X0142367Y0035863D02*
X0054347Y0035863D01*
X0054347Y0034290D02*
X0142367Y0034290D01*
X0142367Y0032716D02*
X0054347Y0032716D01*
X0053870Y0031143D02*
X0142367Y0031143D01*
X0142367Y0029570D02*
X0052958Y0029570D01*
X0051385Y0027996D02*
X0142781Y0027996D01*
X0145195Y0026423D02*
X0015030Y0026423D01*
X0015030Y0024850D02*
X0146768Y0024850D01*
X0148342Y0023276D02*
X0019362Y0023276D01*
X0021476Y0021703D02*
X0149915Y0021703D01*
X0151488Y0020130D02*
X0022958Y0020130D01*
X0023610Y0018556D02*
X0041399Y0018556D01*
X0039892Y0016983D02*
X0024262Y0016983D01*
X0024307Y0015410D02*
X0039240Y0015410D01*
X0047557Y0018556D02*
X0051399Y0018556D01*
X0049892Y0016983D02*
X0049065Y0016983D01*
X0057557Y0018556D02*
X0061399Y0018556D01*
X0059892Y0016983D02*
X0059065Y0016983D01*
X0067557Y0018556D02*
X0071399Y0018556D01*
X0069892Y0016983D02*
X0069065Y0016983D01*
X0077557Y0018556D02*
X0081399Y0018556D01*
X0079892Y0016983D02*
X0079065Y0016983D01*
X0087557Y0018556D02*
X0091399Y0018556D01*
X0089892Y0016983D02*
X0089065Y0016983D01*
X0097557Y0018556D02*
X0101399Y0018556D01*
X0099892Y0016983D02*
X0099065Y0016983D01*
X0107557Y0018556D02*
X0111399Y0018556D01*
X0109892Y0016983D02*
X0109065Y0016983D01*
X0117557Y0018556D02*
X0121399Y0018556D01*
X0119892Y0016983D02*
X0119065Y0016983D01*
X0127557Y0018556D02*
X0132923Y0018556D01*
X0134281Y0018556D02*
X0134675Y0018556D01*
X0136033Y0018556D02*
X0141399Y0018556D01*
X0139892Y0016983D02*
X0138234Y0016983D01*
X0139041Y0015410D02*
X0139240Y0015410D01*
X0134675Y0015410D02*
X0134281Y0015410D01*
X0134281Y0016983D02*
X0134675Y0016983D01*
X0130723Y0016983D02*
X0129065Y0016983D01*
X0129717Y0015410D02*
X0129916Y0015410D01*
X0147557Y0018556D02*
X0151399Y0018556D01*
X0149892Y0016983D02*
X0149065Y0016983D01*
X0160450Y0022446D02*
X0160450Y0039776D01*
X0153415Y0046811D01*
X0153415Y0050856D01*
X0153415Y0051447D01*
X0153415Y0052628D01*
X0146919Y0050856D02*
X0135907Y0039844D01*
X0054957Y0039844D01*
X0054957Y0039600D01*
X0054943Y0039587D01*
X0050710Y0039587D01*
X0050710Y0035699D01*
X0050710Y0031811D01*
X0049441Y0030543D01*
X0015960Y0030543D01*
X0010000Y0036503D01*
X0010000Y0083809D01*
X0015030Y0088839D01*
X0015030Y0091304D01*
X0015030Y0093770D01*
X0015030Y0098701D01*
X0009991Y0103740D01*
X0009991Y0109656D01*
X0012822Y0112488D01*
X0025053Y0112488D01*
X0028832Y0108708D01*
X0050710Y0086831D01*
X0050710Y0084555D01*
X0050710Y0082943D01*
X0044310Y0082943D02*
X0041672Y0082943D01*
X0041672Y0085838D01*
X0019961Y0107549D01*
X0015030Y0107549D01*
X0015423Y0107155D02*
X0015423Y0107943D01*
X0020360Y0107943D01*
X0020360Y0109313D01*
X0023738Y0109313D01*
X0026141Y0106910D01*
X0026141Y0106910D01*
X0027034Y0106017D01*
X0045246Y0087805D01*
X0044671Y0087230D01*
X0044310Y0087230D01*
X0044310Y0086869D01*
X0044310Y0087230D01*
X0042825Y0087230D01*
X0042370Y0087108D01*
X0041962Y0086873D01*
X0041802Y0086712D01*
X0041215Y0087299D01*
X0034907Y0087299D01*
X0034715Y0087107D01*
X0034522Y0087299D01*
X0028214Y0087299D01*
X0026815Y0085900D01*
X0026815Y0083659D01*
X0020399Y0083659D01*
X0020330Y0083590D01*
X0019817Y0083590D01*
X0017486Y0085921D01*
X0016602Y0085921D01*
X0017721Y0087040D01*
X0018204Y0088207D01*
X0018204Y0088557D01*
X0020960Y0091313D01*
X0020960Y0096226D01*
X0018204Y0098982D01*
X0018204Y0099332D01*
X0017721Y0100499D01*
X0016828Y0101392D01*
X0016002Y0102219D01*
X0017238Y0102219D01*
X0020360Y0105341D01*
X0020360Y0107155D01*
X0015423Y0107155D01*
X0020360Y0106662D02*
X0026389Y0106662D01*
X0027034Y0106017D02*
X0027034Y0106017D01*
X0027962Y0105089D02*
X0020108Y0105089D01*
X0018535Y0103515D02*
X0029535Y0103515D01*
X0031109Y0101942D02*
X0016278Y0101942D01*
X0016828Y0101392D02*
X0016828Y0101392D01*
X0017775Y0100369D02*
X0032682Y0100369D01*
X0034255Y0098795D02*
X0018391Y0098795D01*
X0019964Y0097222D02*
X0035829Y0097222D01*
X0037402Y0095649D02*
X0020960Y0095649D01*
X0020960Y0094076D02*
X0038975Y0094076D01*
X0040548Y0092502D02*
X0020960Y0092502D01*
X0020576Y0090929D02*
X0042122Y0090929D01*
X0043695Y0089356D02*
X0019003Y0089356D01*
X0018028Y0087782D02*
X0045223Y0087782D01*
X0044310Y0086869D02*
X0044310Y0086869D01*
X0027124Y0086209D02*
X0016890Y0086209D01*
X0018771Y0084636D02*
X0026815Y0084636D01*
X0063848Y0089833D02*
X0065536Y0089833D01*
X0065536Y0088040D01*
X0067782Y0085794D01*
X0107474Y0085794D01*
X0154524Y0132845D01*
X0172130Y0132845D01*
X0172707Y0132269D01*
X0172707Y0128415D01*
X0175856Y0128415D02*
X0175856Y0134326D01*
X0174252Y0135930D01*
X0148859Y0135930D01*
X0130315Y0117387D01*
X0068276Y0117387D01*
X0065143Y0120520D01*
X0070541Y0122313D02*
X0072867Y0122313D01*
X0074591Y0124038D01*
X0074591Y0133670D01*
X0074695Y0133773D02*
X0074695Y0136093D01*
X0065665Y0145541D02*
X0163051Y0145541D01*
X0163051Y0145541D01*
X0166604Y0145541D01*
X0176831Y0145541D01*
X0180384Y0145541D01*
X0185305Y0145541D01*
X0185305Y0132756D01*
X0185305Y0128415D01*
X0182156Y0128415D02*
X0182156Y0120925D01*
X0197500Y0105581D01*
X0208140Y0105581D01*
X0231565Y0105581D01*
X0235492Y0109508D01*
X0236486Y0109508D01*
X0236486Y0113061D01*
X0236289Y0112955D02*
X0232818Y0112955D01*
X0232730Y0112864D02*
X0232730Y0110660D01*
X0232852Y0110206D01*
X0233087Y0109798D01*
X0233420Y0109465D01*
X0233828Y0109230D01*
X0234282Y0109108D01*
X0236289Y0109108D01*
X0236289Y0112864D01*
X0232730Y0112864D01*
X0233120Y0113258D02*
X0236289Y0113258D01*
X0236289Y0112864D01*
X0236683Y0112864D01*
X0236683Y0109108D01*
X0237652Y0109108D01*
X0237652Y0102234D01*
X0237274Y0102234D01*
X0237274Y0101841D01*
X0233715Y0101841D01*
X0233715Y0099637D01*
X0233828Y0099212D01*
X0233115Y0098499D01*
X0233115Y0097637D01*
X0233079Y0097623D01*
X0231902Y0096445D01*
X0227540Y0096445D01*
X0227262Y0097117D01*
X0225594Y0098786D01*
X0223414Y0099689D01*
X0221055Y0099689D01*
X0218875Y0098786D01*
X0217206Y0097117D01*
X0216904Y0096387D01*
X0214680Y0098610D01*
X0214680Y0099406D01*
X0214271Y0100394D01*
X0213480Y0101185D01*
X0213480Y0104404D01*
X0212880Y0105004D01*
X0212880Y0105574D01*
X0224857Y0105574D01*
X0225845Y0105983D01*
X0233120Y0113258D01*
X0232730Y0111382D02*
X0231244Y0111382D01*
X0229671Y0109809D02*
X0233081Y0109809D01*
X0236289Y0109809D02*
X0236683Y0109809D01*
X0236683Y0111382D02*
X0236289Y0111382D01*
X0237652Y0108235D02*
X0228098Y0108235D01*
X0226524Y0106662D02*
X0237652Y0106662D01*
X0237274Y0105990D02*
X0235267Y0105990D01*
X0234812Y0105868D01*
X0234404Y0105633D01*
X0234072Y0105300D01*
X0233836Y0104893D01*
X0233715Y0104438D01*
X0233715Y0102234D01*
X0237274Y0102234D01*
X0237274Y0105990D01*
X0237274Y0105089D02*
X0237652Y0105089D01*
X0237652Y0103515D02*
X0237274Y0103515D01*
X0237470Y0102037D02*
X0234114Y0102037D01*
X0231565Y0104587D01*
X0231565Y0105581D01*
X0233950Y0105089D02*
X0212880Y0105089D01*
X0213480Y0103515D02*
X0233715Y0103515D01*
X0233715Y0100369D02*
X0214282Y0100369D01*
X0214680Y0098795D02*
X0218898Y0098795D01*
X0217311Y0097222D02*
X0216068Y0097222D01*
X0225570Y0098795D02*
X0233411Y0098795D01*
X0232679Y0097222D02*
X0227157Y0097222D01*
X0237274Y0101942D02*
X0213480Y0101942D01*
X0208140Y0102431D02*
X0197500Y0102431D01*
X0182156Y0087087D01*
X0182156Y0082746D01*
X0185305Y0082746D02*
X0185305Y0078406D01*
X0185241Y0078406D01*
X0184630Y0077795D01*
X0182156Y0087087D02*
X0166811Y0087087D01*
X0166141Y0086417D01*
X0140739Y0086417D01*
X0136289Y0094754D02*
X0136289Y0106575D01*
X0143563Y0113848D01*
X0146919Y0113848D01*
X0150276Y0113848D01*
X0155394Y0108730D01*
X0162470Y0108730D01*
X0162470Y0105581D02*
X0151850Y0105581D01*
X0150276Y0107156D01*
X0148598Y0107156D01*
X0146919Y0107156D01*
X0146722Y0107352D02*
X0146722Y0106959D01*
X0143163Y0106959D01*
X0143163Y0104755D01*
X0143206Y0104596D01*
X0143163Y0104438D01*
X0143163Y0102234D01*
X0146722Y0102234D01*
X0146722Y0101841D01*
X0143163Y0101841D01*
X0143163Y0099637D01*
X0143277Y0099212D01*
X0142889Y0098824D01*
X0142072Y0099641D01*
X0139464Y0099641D01*
X0139464Y0105260D01*
X0143163Y0108959D01*
X0143163Y0107352D01*
X0146722Y0107352D01*
X0146722Y0106959D02*
X0147116Y0106959D01*
X0147116Y0107352D01*
X0150675Y0107352D01*
X0150675Y0108959D01*
X0153595Y0106039D01*
X0154762Y0105556D01*
X0156025Y0105556D01*
X0157730Y0105556D01*
X0157730Y0105118D01*
X0155495Y0105118D01*
X0154507Y0104709D01*
X0150675Y0100878D01*
X0150675Y0101841D01*
X0147116Y0101841D01*
X0147116Y0102234D01*
X0150675Y0102234D01*
X0150675Y0104438D01*
X0150633Y0104596D01*
X0150675Y0104755D01*
X0150675Y0106959D01*
X0147116Y0106959D01*
X0147116Y0105990D01*
X0147116Y0102234D01*
X0146722Y0102234D01*
X0146722Y0106959D01*
X0146722Y0106662D02*
X0147116Y0106662D01*
X0147033Y0105591D02*
X0146919Y0105591D01*
X0146919Y0102037D01*
X0146722Y0101942D02*
X0139464Y0101942D01*
X0139464Y0100369D02*
X0143163Y0100369D01*
X0143163Y0103515D02*
X0139464Y0103515D01*
X0139464Y0105089D02*
X0143163Y0105089D01*
X0143163Y0106662D02*
X0140866Y0106662D01*
X0142440Y0108235D02*
X0143163Y0108235D01*
X0147033Y0105591D02*
X0148598Y0107156D01*
X0150675Y0106662D02*
X0152972Y0106662D01*
X0151399Y0108235D02*
X0150675Y0108235D01*
X0150675Y0105089D02*
X0155423Y0105089D01*
X0153313Y0103515D02*
X0150675Y0103515D01*
X0151740Y0101942D02*
X0147116Y0101942D01*
X0147116Y0103515D02*
X0146722Y0103515D01*
X0146722Y0105089D02*
X0147116Y0105089D01*
X0162470Y0105581D02*
X0166811Y0105581D01*
X0171841Y0110610D01*
X0171841Y0110610D01*
X0182156Y0120925D01*
X0182161Y0121325D02*
X0181151Y0120315D01*
X0179833Y0119769D01*
X0178406Y0119769D01*
X0177087Y0120315D01*
X0176078Y0121325D01*
X0175850Y0121875D01*
X0172306Y0121875D01*
X0172306Y0121529D01*
X0171760Y0120211D01*
X0171433Y0119884D01*
X0171433Y0118522D01*
X0170887Y0117203D01*
X0170474Y0116790D01*
X0170893Y0115779D01*
X0170893Y0114352D01*
X0170347Y0113034D01*
X0169338Y0112024D01*
X0168019Y0111478D01*
X0167811Y0111478D01*
X0167811Y0106757D01*
X0167211Y0106157D01*
X0167211Y0105581D01*
X0166634Y0105581D01*
X0166634Y0105581D01*
X0166634Y0105581D01*
X0167211Y0105581D01*
X0167211Y0105004D01*
X0167811Y0104404D01*
X0167811Y0090261D01*
X0180840Y0090261D01*
X0195702Y0105123D01*
X0196868Y0105606D01*
X0203400Y0105606D01*
X0203400Y0106157D01*
X0202800Y0106757D01*
X0202800Y0116627D01*
X0202589Y0116627D01*
X0201271Y0117173D01*
X0200262Y0118182D01*
X0199715Y0119501D01*
X0199715Y0120928D01*
X0200168Y0122020D01*
X0199531Y0122284D01*
X0198775Y0123040D01*
X0198760Y0123075D01*
X0194742Y0123075D01*
X0194742Y0119724D01*
X0194333Y0118736D01*
X0193577Y0117980D01*
X0193351Y0117755D01*
X0193351Y0117254D01*
X0192805Y0115936D01*
X0191796Y0114926D01*
X0190477Y0114380D01*
X0189050Y0114380D01*
X0187732Y0114926D01*
X0186723Y0115936D01*
X0186176Y0117254D01*
X0186176Y0118681D01*
X0186723Y0120000D01*
X0187195Y0120472D01*
X0186913Y0120753D01*
X0186367Y0122072D01*
X0186367Y0122572D01*
X0186176Y0122763D01*
X0186047Y0123075D01*
X0183332Y0123075D01*
X0182732Y0123675D01*
X0182707Y0123675D01*
X0182707Y0122643D01*
X0182161Y0121325D01*
X0181658Y0120822D02*
X0186885Y0120822D01*
X0186411Y0119249D02*
X0171433Y0119249D01*
X0171083Y0117675D02*
X0186176Y0117675D01*
X0186654Y0116102D02*
X0170759Y0116102D01*
X0170893Y0114529D02*
X0188692Y0114529D01*
X0190835Y0114529D02*
X0202800Y0114529D01*
X0202800Y0116102D02*
X0192874Y0116102D01*
X0193351Y0117675D02*
X0200769Y0117675D01*
X0199820Y0119249D02*
X0194545Y0119249D01*
X0194742Y0120822D02*
X0199715Y0120822D01*
X0199420Y0122395D02*
X0194742Y0122395D01*
X0186367Y0122395D02*
X0182604Y0122395D01*
X0176581Y0120822D02*
X0172013Y0120822D01*
X0170268Y0112955D02*
X0202800Y0112955D01*
X0202800Y0111382D02*
X0167811Y0111382D01*
X0167811Y0109809D02*
X0202800Y0109809D01*
X0202800Y0108235D02*
X0167811Y0108235D01*
X0167716Y0106662D02*
X0202895Y0106662D01*
X0195668Y0105089D02*
X0167211Y0105089D01*
X0167811Y0103515D02*
X0194095Y0103515D01*
X0192521Y0101942D02*
X0167811Y0101942D01*
X0167811Y0100369D02*
X0190948Y0100369D01*
X0189375Y0098795D02*
X0167811Y0098795D01*
X0167811Y0097222D02*
X0187801Y0097222D01*
X0186228Y0095649D02*
X0167811Y0095649D01*
X0167811Y0094076D02*
X0184655Y0094076D01*
X0183081Y0092502D02*
X0167811Y0092502D01*
X0167811Y0090929D02*
X0181508Y0090929D01*
X0130384Y0068238D02*
X0129990Y0068238D01*
X0138196Y0057889D02*
X0090657Y0057889D01*
X0090657Y0056316D02*
X0139769Y0056316D01*
X0141343Y0054743D02*
X0090657Y0054743D01*
X0047976Y0041284D02*
X0047688Y0040586D01*
X0045271Y0040586D01*
X0044671Y0039986D01*
X0044310Y0039986D01*
X0044310Y0039625D01*
X0044310Y0039625D01*
X0044310Y0039986D01*
X0042825Y0039986D01*
X0042370Y0039864D01*
X0041962Y0039629D01*
X0041802Y0039468D01*
X0041215Y0040055D01*
X0035133Y0040055D01*
X0035133Y0041284D01*
X0047976Y0041284D01*
X0045268Y0040583D02*
X0035133Y0040583D01*
X0044310Y0039587D02*
X0044675Y0039587D01*
X0045135Y0040047D01*
X0044310Y0039587D02*
X0044310Y0035699D01*
X0146919Y0038061D02*
X0151805Y0038061D01*
X0152198Y0037667D01*
X0155699Y0037667D01*
X0146919Y0038061D02*
X0146919Y0044163D01*
X0160699Y0045167D02*
X0164199Y0045167D01*
X0164355Y0045323D02*
X0164355Y0050069D01*
X0169557Y0050069D01*
X0164355Y0050069D02*
X0162977Y0051447D01*
X0160108Y0051447D01*
X0162274Y0061486D02*
X0162582Y0061795D01*
X0184715Y0050463D02*
X0187583Y0050463D01*
X0189833Y0050463D02*
X0189833Y0036030D01*
X0190226Y0035636D01*
X0190226Y0032136D01*
X0185239Y0032716D02*
X0178834Y0032716D01*
X0178834Y0031143D02*
X0185239Y0031143D01*
X0185239Y0030070D02*
X0188161Y0027148D01*
X0192292Y0027148D01*
X0195214Y0030070D01*
X0195214Y0034202D01*
X0194767Y0034648D01*
X0196699Y0034648D01*
X0201022Y0030325D01*
X0201022Y0025348D01*
X0202421Y0023949D01*
X0219371Y0023949D01*
X0220769Y0025348D01*
X0220769Y0033625D01*
X0219371Y0035023D01*
X0206417Y0035023D01*
X0200214Y0041227D01*
X0200214Y0041702D01*
X0197292Y0044623D01*
X0193161Y0044623D01*
X0193007Y0044470D01*
X0193007Y0046127D01*
X0193179Y0046299D01*
X0193568Y0045910D01*
X0199483Y0045910D01*
X0200881Y0047308D01*
X0200881Y0053617D01*
X0199483Y0055015D01*
X0199346Y0055015D01*
X0199217Y0055327D01*
X0198775Y0055768D01*
X0198823Y0055884D01*
X0198823Y0057311D01*
X0198444Y0058226D01*
X0219754Y0058226D01*
X0223312Y0054668D01*
X0223312Y0053650D01*
X0225013Y0051949D01*
X0225013Y0048242D01*
X0225680Y0046630D01*
X0226915Y0045396D01*
X0241252Y0031058D01*
X0242486Y0029824D01*
X0244099Y0029156D01*
X0244771Y0029156D01*
X0245118Y0028809D01*
X0244729Y0028420D01*
X0244729Y0022505D01*
X0246107Y0021127D01*
X0246107Y0020242D01*
X0243351Y0017486D01*
X0243351Y0015030D01*
X0241433Y0015030D01*
X0241433Y0017486D01*
X0237959Y0020960D01*
X0233045Y0020960D01*
X0229571Y0017486D01*
X0229571Y0015030D01*
X0220769Y0015030D01*
X0220769Y0022428D01*
X0219371Y0023826D01*
X0202421Y0023826D01*
X0201022Y0022428D01*
X0201022Y0019103D01*
X0199016Y0017097D01*
X0197512Y0018602D01*
X0195544Y0019417D01*
X0193413Y0019417D01*
X0191444Y0018602D01*
X0189938Y0017095D01*
X0189478Y0015986D01*
X0189019Y0017095D01*
X0187512Y0018602D01*
X0185544Y0019417D01*
X0183413Y0019417D01*
X0181444Y0018602D01*
X0179938Y0017095D01*
X0179478Y0015986D01*
X0179019Y0017095D01*
X0177512Y0018602D01*
X0175544Y0019417D01*
X0173413Y0019417D01*
X0172166Y0018900D01*
X0172166Y0026815D01*
X0177436Y0026815D01*
X0178834Y0028214D01*
X0178834Y0034296D01*
X0185333Y0034296D01*
X0185239Y0034202D01*
X0185239Y0030070D01*
X0185739Y0029570D02*
X0178834Y0029570D01*
X0178617Y0027996D02*
X0187313Y0027996D01*
X0193140Y0027996D02*
X0201022Y0027996D01*
X0201022Y0026423D02*
X0172166Y0026423D01*
X0172166Y0024850D02*
X0201520Y0024850D01*
X0201871Y0023276D02*
X0172166Y0023276D01*
X0172166Y0021703D02*
X0201022Y0021703D01*
X0201022Y0020130D02*
X0172166Y0020130D01*
X0177557Y0018556D02*
X0181399Y0018556D01*
X0179892Y0016983D02*
X0179065Y0016983D01*
X0187557Y0018556D02*
X0191399Y0018556D01*
X0189892Y0016983D02*
X0189065Y0016983D01*
X0197557Y0018556D02*
X0200476Y0018556D01*
X0219921Y0023276D02*
X0244729Y0023276D01*
X0244729Y0024850D02*
X0220271Y0024850D01*
X0220769Y0026423D02*
X0244729Y0026423D01*
X0244729Y0027996D02*
X0220769Y0027996D01*
X0220769Y0029570D02*
X0243101Y0029570D01*
X0241167Y0031143D02*
X0220769Y0031143D01*
X0220769Y0032716D02*
X0239594Y0032716D01*
X0238021Y0034290D02*
X0220104Y0034290D01*
X0233301Y0039010D02*
X0202431Y0039010D01*
X0200858Y0040583D02*
X0231728Y0040583D01*
X0230154Y0042156D02*
X0199759Y0042156D01*
X0198186Y0043729D02*
X0228581Y0043729D01*
X0227008Y0045303D02*
X0193007Y0045303D01*
X0200449Y0046876D02*
X0225578Y0046876D01*
X0225013Y0048449D02*
X0200881Y0048449D01*
X0200881Y0050023D02*
X0225013Y0050023D01*
X0225013Y0051596D02*
X0200881Y0051596D01*
X0200881Y0053169D02*
X0223793Y0053169D01*
X0223238Y0054743D02*
X0199756Y0054743D01*
X0198823Y0056316D02*
X0221665Y0056316D01*
X0220091Y0057889D02*
X0198584Y0057889D01*
X0195236Y0056598D02*
X0195236Y0054818D01*
X0196526Y0053528D01*
X0196526Y0050463D01*
X0226915Y0045396D02*
X0226915Y0045396D01*
X0236269Y0048449D02*
X0254203Y0048449D01*
X0254203Y0046876D02*
X0237843Y0046876D01*
X0239416Y0045303D02*
X0254203Y0045303D01*
X0254203Y0043729D02*
X0240989Y0043729D01*
X0242563Y0042156D02*
X0254203Y0042156D01*
X0254203Y0040583D02*
X0244136Y0040583D01*
X0245709Y0039010D02*
X0254203Y0039010D01*
X0254203Y0037436D02*
X0251347Y0037436D01*
X0251767Y0037262D02*
X0252486Y0036543D01*
X0254203Y0036543D01*
X0254203Y0053214D01*
X0251673Y0050684D01*
X0249612Y0050684D01*
X0249612Y0055959D01*
X0249187Y0055959D01*
X0249187Y0050684D01*
X0247127Y0050684D01*
X0244824Y0052987D01*
X0241921Y0050084D01*
X0236878Y0050084D01*
X0234400Y0052562D01*
X0233787Y0051949D01*
X0233787Y0050932D01*
X0246788Y0037930D01*
X0250154Y0037930D01*
X0251767Y0037262D01*
X0236447Y0035863D02*
X0205578Y0035863D01*
X0204004Y0037436D02*
X0234874Y0037436D01*
X0234696Y0050023D02*
X0254203Y0050023D01*
X0254203Y0051596D02*
X0252585Y0051596D01*
X0254158Y0053169D02*
X0254203Y0053169D01*
X0249612Y0053169D02*
X0249187Y0053169D01*
X0249187Y0051596D02*
X0249612Y0051596D01*
X0246214Y0051596D02*
X0243433Y0051596D01*
X0249187Y0054743D02*
X0249612Y0054743D01*
X0258046Y0059730D02*
X0258046Y0059730D01*
X0274872Y0067864D02*
X0274872Y0074272D01*
X0268461Y0080682D01*
X0245643Y0080682D01*
X0241998Y0077037D01*
X0249365Y0077037D02*
X0254793Y0077037D01*
X0243027Y0100786D02*
X0243027Y0115198D01*
X0242618Y0116185D01*
X0240842Y0117961D01*
X0240842Y0121894D01*
X0252489Y0110248D01*
X0243027Y0100786D01*
X0243027Y0101942D02*
X0244183Y0101942D01*
X0243027Y0103515D02*
X0245757Y0103515D01*
X0247330Y0105089D02*
X0243027Y0105089D01*
X0243027Y0106662D02*
X0248903Y0106662D01*
X0250477Y0108235D02*
X0243027Y0108235D01*
X0243027Y0109809D02*
X0252050Y0109809D01*
X0251354Y0111382D02*
X0243027Y0111382D01*
X0243027Y0112955D02*
X0249781Y0112955D01*
X0248208Y0114529D02*
X0243027Y0114529D01*
X0242652Y0116102D02*
X0246634Y0116102D01*
X0245061Y0117675D02*
X0241128Y0117675D01*
X0240842Y0119249D02*
X0243488Y0119249D01*
X0241914Y0120822D02*
X0240842Y0120822D01*
X0233923Y0128813D02*
X0217412Y0128813D01*
X0217058Y0129167D01*
X0215980Y0129613D01*
X0215980Y0144951D01*
X0217785Y0144951D01*
X0233923Y0128813D01*
X0232474Y0130262D02*
X0215980Y0130262D01*
X0215980Y0131835D02*
X0230901Y0131835D01*
X0229328Y0133408D02*
X0215980Y0133408D01*
X0215980Y0134982D02*
X0227754Y0134982D01*
X0226181Y0136555D02*
X0215980Y0136555D01*
X0215980Y0138128D02*
X0224608Y0138128D01*
X0223035Y0139702D02*
X0215980Y0139702D01*
X0215980Y0141275D02*
X0221461Y0141275D01*
X0219888Y0142848D02*
X0215980Y0142848D01*
X0215980Y0144422D02*
X0218315Y0144422D01*
X0207943Y0145541D02*
X0194163Y0145541D01*
X0185305Y0145541D01*
X0180384Y0152234D02*
X0180384Y0160699D01*
X0194163Y0160699D02*
X0194163Y0152234D01*
X0207943Y0152234D02*
X0207943Y0160699D01*
X0166604Y0160699D02*
X0166604Y0152234D01*
X0065665Y0145541D02*
X0028832Y0108708D01*
X0024815Y0108235D02*
X0020360Y0108235D01*
X0019473Y0121329D02*
X0015030Y0121329D01*
X0019473Y0121329D02*
X0046607Y0148463D01*
X0040620Y0156255D02*
X0019473Y0135108D01*
X0015030Y0135108D01*
X0074695Y0103612D02*
X0074695Y0101687D01*
X0074985Y0101977D02*
X0074985Y0091914D01*
X0072904Y0089833D01*
X0070541Y0089833D01*
X0178834Y0034290D02*
X0185327Y0034290D01*
X0195126Y0034290D02*
X0197058Y0034290D01*
X0198631Y0032716D02*
X0195214Y0032716D01*
X0195214Y0031143D02*
X0200204Y0031143D01*
X0201022Y0029570D02*
X0194713Y0029570D01*
X0220769Y0021703D02*
X0245531Y0021703D01*
X0245994Y0020130D02*
X0238789Y0020130D01*
X0240362Y0018556D02*
X0244421Y0018556D01*
X0243351Y0016983D02*
X0241433Y0016983D01*
X0241433Y0015410D02*
X0243351Y0015410D01*
X0249281Y0015030D02*
X0249281Y0025463D01*
X0232215Y0020130D02*
X0220769Y0020130D01*
X0220769Y0018556D02*
X0230642Y0018556D01*
X0229571Y0016983D02*
X0220769Y0016983D01*
X0220769Y0015410D02*
X0229571Y0015410D01*
X0276841Y0015030D02*
X0276841Y0025463D01*
X0275728Y0042904D02*
X0274872Y0042904D01*
X0286280Y0046919D02*
X0287958Y0046919D01*
X0235366Y0051596D02*
X0233787Y0051596D01*
X0164478Y0018417D02*
X0160450Y0022446D01*
X0164478Y0018417D02*
X0164478Y0011093D01*
D33*
X0054957Y0039844D03*
X0045135Y0040047D03*
X0039615Y0059321D03*
X0054713Y0060238D03*
X0078399Y0063608D03*
X0143404Y0090018D03*
X0152468Y0089082D03*
X0152333Y0095702D03*
X0155526Y0098937D03*
X0171841Y0110610D03*
X0167306Y0115066D03*
X0167846Y0119235D03*
X0168719Y0122243D03*
X0179119Y0123357D03*
X0189954Y0122785D03*
X0189764Y0117968D03*
X0203303Y0120215D03*
X0204533Y0124237D03*
X0209085Y0124387D03*
X0215026Y0126126D03*
X0209883Y0133251D03*
X0181934Y0134648D03*
X0159557Y0129619D03*
X0246340Y0097278D03*
X0260795Y0093003D03*
X0234464Y0089189D03*
X0197799Y0090195D03*
X0194059Y0091524D03*
X0184630Y0077795D03*
X0167044Y0073107D03*
X0163380Y0073367D03*
X0160379Y0073605D03*
X0160306Y0076606D03*
X0156896Y0077835D03*
X0154015Y0080629D03*
X0176564Y0056598D03*
X0195236Y0056598D03*
D34*
X0229400Y0056171D02*
X0229400Y0053628D01*
X0229400Y0049115D01*
X0244971Y0033543D01*
X0249281Y0033543D01*
X0249281Y0032156D01*
X0252835Y0032156D02*
X0276841Y0032156D01*
X0294961Y0032156D01*
X0294961Y0046919D01*
X0289636Y0046919D01*
X0287958Y0046919D01*
X0286280Y0046919D02*
X0286280Y0050049D01*
X0274872Y0061457D01*
X0274872Y0067864D01*
X0261486Y0068258D02*
X0261486Y0077037D01*
X0261486Y0068258D02*
X0258046Y0064817D01*
X0258046Y0059730D01*
X0254487Y0056171D01*
X0249400Y0056171D01*
X0258046Y0059730D02*
X0272402Y0045374D01*
X0274872Y0045374D01*
X0274872Y0042904D01*
X0275728Y0042904D02*
X0278406Y0040226D01*
X0289636Y0040226D01*
X0294961Y0032156D02*
X0300285Y0032156D01*
X0304400Y0028041D01*
X0304400Y0025404D01*
X0130384Y0068238D02*
X0129990Y0068238D01*
D35*
X0249281Y0032156D02*
X0252835Y0032156D01*
D36*
X0206959Y0018289D02*
X0205384Y0018418D01*
X0174478Y0031368D02*
X0171609Y0031368D01*
X0169478Y0029237D01*
X0169478Y0007564D01*
X0166043Y0004128D01*
X0161443Y0004128D01*
X0154478Y0011093D01*
X0154478Y0020940D01*
X0146919Y0028499D01*
X0146919Y0031368D01*
X0164199Y0045167D02*
X0164355Y0045323D01*
X0187583Y0050463D02*
X0189833Y0050463D01*
X0176564Y0056598D02*
X0176400Y0056762D01*
X0169557Y0056762D01*
X0156043Y0065188D02*
X0194635Y0065188D01*
X0208140Y0078693D01*
X0226061Y0060772D01*
X0231349Y0060772D01*
X0234799Y0057322D01*
X0234799Y0056538D01*
X0235166Y0056171D01*
X0239400Y0056171D01*
X0239400Y0066171D02*
X0239400Y0067150D01*
X0235778Y0070772D01*
X0210417Y0096132D01*
X0208140Y0096132D01*
X0204287Y0096132D01*
X0203012Y0094857D01*
X0203012Y0079443D01*
X0192392Y0068823D01*
X0158793Y0068823D01*
X0151528Y0076087D01*
X0068927Y0076087D01*
X0066196Y0073356D01*
X0063345Y0073356D01*
X0059483Y0075112D02*
X0061688Y0077318D01*
X0153694Y0077318D01*
X0160699Y0070314D01*
X0190848Y0070314D01*
X0201053Y0080519D01*
X0201053Y0082746D01*
X0197904Y0082746D02*
X0197904Y0090090D01*
X0197799Y0090195D01*
X0194059Y0091524D02*
X0194059Y0087294D01*
X0194754Y0086599D01*
X0194754Y0082746D01*
X0191604Y0082746D02*
X0191604Y0078893D01*
X0185818Y0073107D01*
X0167044Y0073107D01*
X0165219Y0075207D02*
X0163380Y0073367D01*
X0165219Y0075207D02*
X0185013Y0075207D01*
X0188455Y0078649D01*
X0188455Y0078893D01*
X0188455Y0082746D01*
X0179006Y0082746D02*
X0179006Y0078893D01*
X0176520Y0076407D01*
X0163181Y0076407D01*
X0160379Y0073605D01*
X0160306Y0076606D02*
X0161393Y0077693D01*
X0174656Y0077693D01*
X0175856Y0078893D01*
X0175856Y0082746D01*
X0172707Y0082746D02*
X0172707Y0079120D01*
X0172480Y0078893D01*
X0157954Y0078893D01*
X0156896Y0077835D01*
X0154015Y0080629D02*
X0169408Y0080629D01*
X0169557Y0082746D01*
X0158617Y0089833D02*
X0157867Y0089082D01*
X0152468Y0089082D01*
X0158617Y0089833D02*
X0162470Y0089833D01*
X0162470Y0092982D02*
X0158617Y0092982D01*
X0157353Y0091718D01*
X0145104Y0091718D01*
X0143404Y0090018D01*
X0143460Y0094754D02*
X0139833Y0094754D01*
X0143460Y0094754D02*
X0144050Y0095344D01*
X0146919Y0095344D01*
X0149192Y0095344D01*
X0149788Y0095941D01*
X0149788Y0096190D01*
X0156029Y0102431D01*
X0162470Y0102431D01*
X0162470Y0099281D02*
X0158617Y0099281D01*
X0158273Y0098937D01*
X0155526Y0098937D01*
X0158617Y0096132D02*
X0162470Y0096132D01*
X0158617Y0096132D02*
X0158187Y0095702D01*
X0152333Y0095702D01*
X0158617Y0111880D02*
X0158617Y0128680D01*
X0159557Y0129619D01*
X0169557Y0128415D02*
X0169557Y0124562D01*
X0177914Y0124562D01*
X0179119Y0123357D01*
X0188455Y0124285D02*
X0189954Y0122785D01*
X0188455Y0124285D02*
X0188455Y0128415D01*
X0191604Y0128415D02*
X0191604Y0124562D01*
X0192055Y0124112D01*
X0192055Y0120259D01*
X0189764Y0117968D01*
X0201053Y0124562D02*
X0204207Y0124562D01*
X0204533Y0124237D01*
X0204287Y0121329D02*
X0208140Y0121329D01*
X0209084Y0124387D02*
X0209085Y0124387D01*
X0209084Y0124387D02*
X0209084Y0125746D01*
X0202562Y0132269D01*
X0198271Y0132269D01*
X0197904Y0131901D01*
X0197904Y0128415D01*
X0201053Y0128415D02*
X0201053Y0124562D01*
X0204287Y0121329D02*
X0203303Y0120345D01*
X0203303Y0120215D01*
X0208140Y0118179D02*
X0211583Y0118179D01*
X0211993Y0118589D01*
X0211993Y0124433D01*
X0211693Y0124733D01*
X0211693Y0129660D01*
X0211993Y0129960D01*
X0211993Y0146953D01*
X0210483Y0148463D01*
X0046607Y0148463D01*
X0040620Y0156255D02*
X0099568Y0156255D01*
X0103488Y0160176D01*
X0103488Y0161533D01*
X0108396Y0166441D01*
X0208589Y0166441D01*
X0213293Y0161738D01*
X0213293Y0127431D01*
X0212893Y0127032D01*
X0212893Y0125231D01*
X0213347Y0124777D01*
X0213347Y0116384D01*
X0211993Y0115030D01*
X0208140Y0115030D01*
X0211993Y0111880D02*
X0212871Y0112758D01*
X0222234Y0112758D01*
X0229230Y0119754D01*
X0236486Y0119754D01*
X0238875Y0116127D02*
X0232189Y0116127D01*
X0224323Y0108261D01*
X0212462Y0108261D01*
X0211993Y0108730D01*
X0208140Y0108730D01*
X0208140Y0111880D02*
X0211993Y0111880D01*
X0238875Y0116127D02*
X0240339Y0114663D01*
X0240339Y0095851D01*
X0239833Y0095344D01*
X0237470Y0095344D01*
X0234602Y0095344D01*
X0233015Y0093758D01*
X0222234Y0093758D01*
X0211993Y0097497D02*
X0211993Y0098872D01*
X0211583Y0099281D01*
X0208140Y0099281D01*
X0211993Y0097497D02*
X0235518Y0073972D01*
X0248691Y0073972D01*
X0248691Y0075505D01*
X0248691Y0077037D01*
X0249365Y0077037D02*
X0247833Y0075505D01*
X0248691Y0075505D01*
X0248691Y0073972D02*
X0248691Y0071480D01*
X0249400Y0070772D01*
X0249400Y0066171D01*
X0229400Y0066171D02*
X0229400Y0073963D01*
X0210380Y0092982D01*
X0208140Y0092982D01*
X0204287Y0092982D01*
X0204287Y0079019D01*
X0192595Y0067328D01*
X0156891Y0067328D01*
X0149362Y0074857D01*
X0082399Y0074857D01*
X0081501Y0073959D01*
X0081501Y0071364D01*
X0082068Y0070797D01*
X0086320Y0070797D01*
X0086320Y0073356D02*
X0147875Y0073356D01*
X0156043Y0065188D01*
X0208140Y0078693D02*
X0208140Y0089833D01*
X0234464Y0089189D02*
X0236801Y0089189D01*
X0243344Y0095732D01*
X0243344Y0097302D01*
X0260437Y0114395D01*
X0272638Y0114395D01*
X0280468Y0106565D01*
X0283337Y0106565D01*
X0290030Y0106565D02*
X0292898Y0106565D01*
X0304878Y0094585D01*
X0372107Y0094585D01*
X0373080Y0093612D01*
X0380581Y0093612D01*
X0376380Y0054506D02*
X0338100Y0092785D01*
X0290030Y0092785D01*
X0283337Y0092785D02*
X0280468Y0092785D01*
X0275976Y0097278D01*
X0246340Y0097278D01*
X0260795Y0093003D02*
X0261964Y0094172D01*
X0262152Y0094360D01*
X0265030Y0094360D01*
X0265030Y0101053D02*
X0265030Y0105407D01*
X0263061Y0107376D01*
X0263061Y0110876D01*
X0274687Y0126126D02*
X0280468Y0120344D01*
X0283337Y0120344D01*
X0290030Y0120344D02*
X0368206Y0120344D01*
X0380581Y0132719D01*
X0380581Y0136919D01*
X0274687Y0126126D02*
X0215026Y0126126D01*
X0209883Y0133251D02*
X0209528Y0133606D01*
X0196091Y0133606D01*
X0194754Y0132269D01*
X0194754Y0128415D01*
X0181934Y0134648D02*
X0179554Y0132269D01*
X0179006Y0131720D01*
X0179006Y0128415D01*
X0168719Y0122243D02*
X0167238Y0122243D01*
X0166324Y0121329D01*
X0162470Y0121329D01*
X0162470Y0118179D02*
X0166324Y0118179D01*
X0167380Y0119235D01*
X0167846Y0119235D01*
X0167846Y0119235D01*
X0167306Y0115066D02*
X0167269Y0115030D01*
X0166324Y0115030D01*
X0162470Y0115030D01*
X0162470Y0111880D02*
X0158617Y0111880D01*
X0074985Y0101977D02*
X0074695Y0101687D01*
X0047510Y0082943D02*
X0047510Y0079990D01*
X0047062Y0079543D01*
X0038593Y0079543D01*
X0038061Y0080074D01*
X0038061Y0082943D01*
X0031368Y0082943D02*
X0031368Y0080417D01*
X0030973Y0080022D01*
X0023888Y0080022D01*
X0019505Y0080022D02*
X0019473Y0079990D01*
X0019473Y0066211D02*
X0019505Y0066179D01*
X0023888Y0066179D02*
X0030973Y0066179D01*
X0031368Y0065784D01*
X0031368Y0063258D01*
X0038061Y0063258D02*
X0038061Y0066127D01*
X0038593Y0066658D01*
X0047062Y0066658D01*
X0047510Y0066211D01*
X0047510Y0063258D01*
X0059483Y0069449D02*
X0060694Y0068238D01*
X0063345Y0068238D01*
X0059483Y0069449D02*
X0059483Y0075112D01*
X0047510Y0055384D02*
X0047510Y0052520D01*
X0046973Y0051983D01*
X0038593Y0051983D01*
X0038061Y0052515D01*
X0038061Y0055384D01*
X0031368Y0055384D02*
X0031368Y0052858D01*
X0030973Y0052463D01*
X0023888Y0052463D01*
X0019505Y0052463D02*
X0019473Y0052431D01*
X0030778Y0048888D02*
X0033473Y0048888D01*
X0030973Y0038620D02*
X0023888Y0038620D01*
X0019505Y0038620D02*
X0019473Y0038652D01*
X0030973Y0038620D02*
X0031368Y0038225D01*
X0031368Y0035699D01*
X0038061Y0035699D02*
X0038061Y0032830D01*
X0038593Y0032298D01*
X0047062Y0032298D01*
X0047510Y0032746D01*
X0047510Y0035699D01*
X0065143Y0120520D02*
X0065143Y0122313D01*
X0063848Y0122313D01*
X0074591Y0133670D02*
X0074695Y0133773D01*
X0376380Y0054506D02*
X0380044Y0054506D01*
X0380581Y0053969D01*
X0380581Y0050305D01*
D37*
X0400856Y0053415D02*
X0400856Y0061496D01*
X0400856Y0067195D01*
X0400856Y0075276D01*
X0400856Y0080974D01*
X0410736Y0090854D01*
X0410736Y0098654D01*
X0400856Y0108533D01*
X0410716Y0118393D01*
X0410716Y0126233D01*
X0400856Y0136093D01*
X0391718Y0146919D02*
X0380581Y0146919D01*
X0391718Y0146919D02*
X0391718Y0148815D01*
X0392776Y0149872D01*
X0400856Y0149872D01*
X0400856Y0122313D02*
X0391718Y0113175D01*
X0391718Y0106534D01*
X0388796Y0103612D01*
X0380581Y0103612D01*
X0391718Y0085616D02*
X0400856Y0094754D01*
X0391718Y0085616D02*
X0391718Y0063317D01*
X0388707Y0060305D01*
X0380581Y0060305D01*
D38*
X0063345Y0060561D02*
X0060495Y0060561D01*
X0051302Y0069754D01*
X0030778Y0069754D01*
X0030778Y0076447D02*
X0047168Y0076447D01*
X0060495Y0063120D01*
X0063345Y0063120D01*
X0063345Y0058002D02*
X0060404Y0058002D01*
X0051290Y0048888D01*
X0033473Y0048888D01*
X0032352Y0044163D02*
X0049215Y0044163D01*
X0060495Y0055443D01*
X0063345Y0055443D01*
X0032352Y0044163D02*
X0029793Y0042589D01*
X0030778Y0042195D01*
M02*
