%
M48
M72
T01C0.0120
T02C0.0236
T03C0.0320
T04C0.0394
T05C0.0400
T06C0.0440
T07C0.0472
T08C0.1300
T09C0.1378
%
T01
X15956Y12962
X16872Y12224
X16785Y11924
X16731Y11507
X17184Y11061
X18976Y11797
X18995Y12279
X17912Y12336
X20330Y12021
X20453Y12424
X20908Y12439
X21503Y12613
X20988Y13325
X18193Y13465
X15553Y9894
X15233Y9570
X14340Y9002
X15247Y8908
X15401Y8063
X15690Y7784
X16031Y7661
X16038Y7360
X16338Y7337
X16704Y7311
X18463Y7779
X19780Y9019
X19406Y9152
X23446Y8919
X24634Y9728
X26079Y9300
X19524Y5660
X17656Y5660
X7840Y6361
X5471Y6024
X3962Y5932
X4514Y4005
X5496Y3984
T02
X2487Y1700
X3275Y1700
X3275Y2487
X2487Y2487
X4062Y2487
X4849Y2487
X5637Y2487
X5637Y3275
X6424Y3275
X7212Y3275
X7999Y3275
X7999Y4456
X7212Y4456
X6424Y4456
X8786Y4456
X9574Y4456
X10361Y4456
X11149Y4456
X11936Y5243
X12494Y5253
X10255Y5336
X10361Y6031
X11149Y6031
X12495Y6031
X13038Y6824
X12998Y8455
X17054Y9180
X17842Y9180
X17842Y9771
X17054Y9771
X17054Y10361
X17842Y10361
X15282Y10558
X14101Y10558
X22369Y13708
X21779Y14298
X23156Y12920
X24338Y11739
X24928Y11149
X23944Y4849
X23550Y5046
X21975Y5440
X21385Y5440
X20794Y5440
X20204Y5440
X21188Y3865
X13905Y3275
X13117Y3275
X13117Y2094
X13905Y2094
X2487Y6031
X1897Y6031
X2487Y8786
X2487Y9377
X2487Y9968
X2487Y10558
X42842Y16464
X43432Y16464
X44023Y16464
X44613Y16464
X45204Y16464
X45204Y15873
X44613Y15873
X44023Y15873
X43432Y15873
X44023Y15282
X44613Y15282
X45204Y15282
X45204Y14692
X44613Y14692
X45204Y14101
T03
X15570Y3767
X16570Y3767
X16070Y4517
X18523Y3964
X19523Y3964
X19023Y3214
X22223Y9376
X26306Y11088
X25806Y11838
X26806Y11838
X22223Y11276
X7469Y13609
X6719Y13109
X6719Y14109
X6719Y10861
X7469Y10361
X6719Y9861
T04
X4448Y1109
X5448Y1109
X6448Y1109
X7448Y1109
X8448Y1109
X9448Y1109
X10448Y1109
X11448Y1109
X12448Y1109
X13448Y1109
X14448Y1109
X15448Y1109
X16448Y1109
X17448Y1109
X18448Y1109
X19448Y1109
T05
X22940Y6617
X23940Y6617
X24940Y6617
X24940Y5617
X23940Y5617
X22940Y5617
T06
X38058Y6031
X38058Y7031
X38058Y5031
X38058Y9361
X38058Y10361
X38058Y11361
X38058Y13692
X38058Y14692
X38058Y15692
T07
X1503Y13511
X1503Y12133
X1503Y10755
X1503Y9377
X1503Y7999
X1503Y6621
X1503Y5243
X1503Y3865
X23550Y1503
X24928Y1503
X26306Y1503
X27684Y1503
X29062Y1503
X30440Y1503
X31818Y1503
X33196Y1503
X34574Y1503
X35952Y1503
X40086Y2586
X40086Y3964
X40086Y5342
X40086Y6719
X40086Y8097
X40086Y9475
X40086Y10853
X40086Y12231
X40086Y13609
X40086Y14987
X26306Y16070
X24928Y16070
X23550Y16070
X22172Y16070
X20794Y16070
X19416Y16070
X18038Y16070
X16660Y16070
X15282Y16070
X13905Y16070
X12527Y16070
X11149Y16070
X9771Y16070
X8393Y16070
T08
X31158Y6031
X31158Y10361
X31158Y14692
T09
X1503Y16070
X46779Y1503
X46779Y16070
X1503Y1503
M30
